<svg width="1280" height="360" viewBox="0 0 1280 360" fill="none" xmlns="http://www.w3.org/2000/svg" role="img" aria-label="Thalamus — real-time, closed-loop multimodal data acquisition">
  <rect width="1280" height="360" rx="20" fill="#FCFDFE" stroke="#E5EBF3" stroke-width="1.5"/>
  <g stroke="#29ABE2" stroke-opacity="0.08" stroke-width="1.5" fill="none">
    <path d="M1190 44 H1090 V120 M1228 92 H1138 V172 M1188 204 H1108"/>
  </g>
  <g transform="translate(64,18) scale(0.8)">
    <defs><path id="hemi" d="M199 44 C199 30 188 24 176 26 C150 16 116 30 110 60 C80 62 58 90 76 116 C46 138 50 196 80 214 C62 246 80 284 114 286 C122 316 154 326 174 308 C186 318 199 308 199 282 L199 44 Z"/></defs>
    <use href="#hemi" stroke="#16294C" stroke-width="7" fill="none" stroke-linejoin="round"/>
  <use href="#hemi" stroke="#16294C" stroke-width="7" fill="none" stroke-linejoin="round" transform="translate(420,0) scale(-1,1)"/>

  <!-- LEFT NEURONS -->
  <g stroke="#16294C" fill="none" stroke-width="4.2" stroke-linecap="round" stroke-linejoin="round">
    <path d="M188 130 C166 120 156 104 160 84"/><path d="M160 98 C148 90 134 92 124 82"/>
    <path d="M160 84 C156 70 148 62 138 59"/><path d="M188 130 C168 132 152 126 138 134"/>
    <path d="M152 126 C142 118 128 118 118 124"/><path d="M138 134 C128 140 116 138 106 146"/>
    <path d="M124 82 C116 74 105 74 97 80"/><path d="M188 114 C172 106 156 102 146 92"/>
    <path d="M160 84 C162 70 158 60 166 52"/><path d="M146 92 C142 78 134 70 126 66"/>
    <path d="M188 114 C180 96 178 82 184 68"/>
    <path d="M184 68 C182 54 174 46 164 44"/>
    <path d="M158 262 C160 284 152 300 156 312"/>
    <path d="M188 162 C164 158 146 166 130 158"/><path d="M146 166 C136 174 122 174 112 184"/>
    <path d="M130 158 C120 152 108 154 100 146"/><path d="M100 146 C92 154 92 166 84 172"/>
    <path d="M188 188 C166 190 150 202 134 198"/><path d="M150 202 C140 210 128 212 118 222"/>
    <path d="M134 198 C126 206 122 218 112 224"/><path d="M184 212 C166 222 156 242 158 262"/>
    <path d="M158 242 C148 250 144 266 134 272"/><path d="M158 262 C156 280 148 292 152 304"/>
    <path d="M112 184 C104 192 104 206 96 212"/>
  </g>
  <!-- finer secondary dendrites -->
  <g stroke="#16294C" fill="none" stroke-width="3.2" stroke-linecap="round" stroke-linejoin="round">
    <path d="M160 98 C150 104 138 102 132 112"/><path d="M152 126 C146 134 134 134 128 144"/>
    <path d="M146 166 C140 174 130 176 124 186"/><path d="M150 202 C146 212 136 216 130 226"/>
    <path d="M118 124 C110 130 108 142 100 148"/><path d="M134 92 C128 100 118 100 112 110"/>
    <path d="M158 242 C152 250 140 250 134 260"/><path d="M84 172 C78 166 70 168 64 174"/>
  </g>
  <g fill="#16294C">
    <circle cx="132" cy="112" r="2.4"/><circle cx="128" cy="144" r="2.4"/><circle cx="124" cy="186" r="2.4"/>
    <circle cx="130" cy="226" r="2.4"/><circle cx="100" cy="148" r="2.4"/><circle cx="112" cy="110" r="2.4"/>
    <circle cx="134" cy="260" r="2.4"/><circle cx="64" cy="174" r="2.4"/>
  </g>
  <g fill="#16294C">
    <circle cx="160" cy="98" r="4"/><circle cx="152" cy="126" r="4"/><circle cx="146" cy="166" r="4"/>
    <circle cx="150" cy="202" r="4"/><circle cx="158" cy="242" r="4"/><circle cx="130" cy="158" r="3.6"/>
    <circle cx="138" cy="59" r="2.8"/><circle cx="97" cy="80" r="2.8"/><circle cx="106" cy="146" r="2.8"/>
    <circle cx="118" cy="124" r="2.8"/><circle cx="146" cy="92" r="2.8"/><circle cx="84" cy="172" r="2.8"/>
    <circle cx="112" cy="184" r="2.8"/><circle cx="118" cy="222" r="2.8"/>
    <circle cx="112" cy="224" r="2.8"/><circle cx="134" cy="272" r="2.8"/><circle cx="152" cy="304" r="2.8"/>
    <circle cx="96" cy="212" r="2.8"/><circle cx="124" cy="82" r="2.6"/>
    <circle cx="166" cy="52" r="2.8"/><circle cx="126" cy="66" r="2.8"/>
    <circle cx="164" cy="44" r="2.8"/><circle cx="156" cy="312" r="2.8"/>
  </g>

  <!-- RIGHT CIRCUIT -->
  <g stroke="#29ABE2" fill="none" stroke-width="3.8" stroke-linecap="round" stroke-linejoin="round">
    <path d="M232 100 H252 V78 M252 78 V64"/><path d="M232 100 H268 V86"/><path d="M232 122 H286 L304 106"/>
    <path d="M232 144 H258 V116"/><path d="M232 144 H312"/><path d="M232 166 H282 V214"/>
    <path d="M232 188 H252 V218"/><path d="M232 210 H296 V240"/><path d="M282 166 H326"/>
    <path d="M312 144 L334 130"/><path d="M252 78 H288 V66"/>
    <path d="M232 232 H272 V256"/><path d="M282 166 H326 M326 166 L346 154"/>
  </g>
  <g fill="#29ABE2">
    <circle cx="252" cy="64" r="6"/><circle cx="268" cy="86" r="6"/><circle cx="304" cy="106" r="6"/>
    <circle cx="258" cy="116" r="6"/><circle cx="312" cy="144" r="6"/><circle cx="334" cy="130" r="6"/>
    <circle cx="282" cy="214" r="6"/><circle cx="252" cy="218" r="6"/><circle cx="296" cy="240" r="6"/>
    <circle cx="346" cy="154" r="6"/><circle cx="288" cy="66" r="6"/><circle cx="272" cy="256" r="6"/>
  </g>

  <!-- POINTED LEAF ALMOND -->
  <path d="M210 88 C182 126 182 218 210 254 Z" fill="#16294C"/>
  <path d="M210 88 C238 126 238 218 210 254 Z" fill="#29ABE2"/>
  <g fill="#0B1428"><circle cx="222" cy="150" r="3.2"/><circle cx="220" cy="194" r="3.2"/></g>
  <path d="M210 150 H222 M210 194 H220" stroke="#0B1428" stroke-width="2.2" stroke-linecap="round"/>
  </g>
  <text x="500" y="138" font-family="ui-monospace, 'SF Mono', Menlo, Consolas, monospace" font-size="15" letter-spacing="6" fill="#1683BE">REAL&#8209;TIME · CLOSED&#8209;LOOP · MULTIMODAL</text>
  <text x="496" y="216" font-family="'Segoe UI', system-ui, -apple-system, Arial, sans-serif" font-size="76" font-weight="800" letter-spacing="11" fill="#16294C">THALAMUS</text>
  <rect x="500" y="240" width="120" height="3" rx="1.5" fill="#29ABE2"/>
  <text x="500" y="284" font-family="ui-monospace, 'SF Mono', Menlo, Consolas, monospace" font-size="17" letter-spacing="1" fill="#5A6B86">Synchronized data acquisition &amp; closed-loop control</text>
</svg>
