<svg width="1280" height="360" viewBox="0 0 1280 360" fill="none" xmlns="http://www.w3.org/2000/svg" role="img" aria-label="Thalamus — real-time, closed-loop multimodal data acquisition">
  <rect width="1280" height="360" rx="20" fill="#FCFDFE" stroke="#E5EBF3" stroke-width="1.5"/>
  <!-- faint circuit texture, top-right -->
  <g stroke="#29ABE2" stroke-opacity="0.08" stroke-width="1.5" fill="none">
    <path d="M1180 40 H1080 V120 M1220 90 H1130 V170 M1180 200 H1100"/>
    <circle cx="1080" cy="120" r="4" fill="#29ABE2" fill-opacity="0.1" stroke="none"/>
  </g>

  <!-- ===== BRAIN MARK (left) ===== -->
  <g transform="translate(96,42) scale(0.92)">
    <!-- left hemisphere: anatomical gyri (navy) -->
    <g stroke="#16294C" fill="none" stroke-width="6" stroke-linecap="round" stroke-linejoin="round">
      <path d="M176 44 C150 28 120 30 104 46 C86 40 66 52 64 72 C44 78 36 100 48 116 C30 128 30 152 50 162 C38 180 48 204 70 206 C74 226 96 236 114 226 C130 244 160 244 176 226"/>
      <path d="M150 70 C128 64 112 78 118 96 C100 100 96 120 112 128 C98 140 104 160 122 160"/>
      <path d="M150 104 C134 102 126 116 136 126 C124 134 128 150 142 150"/>
      <path d="M150 140 C138 140 132 152 142 160"/>
      <path d="M96 92 C84 100 86 116 98 118"/>
      <path d="M78 130 C70 140 76 154 88 154"/>
      <path d="M104 176 C98 188 108 200 120 196"/>
    </g>
    <!-- right hemisphere: circuit traces (cyan) + navy outline -->
    <path stroke="#16294C" fill="none" stroke-width="6" stroke-linecap="round" stroke-linejoin="round"
          d="M184 44 C210 28 240 30 256 46 C274 40 294 52 296 72 C316 78 324 100 312 116 C330 128 330 152 310 162 C322 180 312 204 290 206 C286 226 264 236 246 226 C230 244 200 244 184 226"/>
    <g stroke="#29ABE2" fill="none" stroke-width="4" stroke-linecap="round" stroke-linejoin="round">
      <path d="M184 92 H236 V70"/><path d="M184 112 H260 V150"/><path d="M184 132 H248 V196"/>
      <path d="M184 152 H236"/><path d="M184 172 H224 V204"/><path d="M236 92 L268 60"/>
      <path d="M260 112 L292 96"/><path d="M248 132 L298 132"/><path d="M236 152 L300 168"/>
    </g>
    <g fill="#29ABE2">
      <circle cx="236" cy="70" r="6"/><circle cx="268" cy="60" r="6"/><circle cx="292" cy="96" r="6"/>
      <circle cx="298" cy="132" r="6"/><circle cx="300" cy="168" r="6"/><circle cx="224" cy="204" r="6"/>
      <circle cx="248" cy="196" r="6"/><circle cx="260" cy="150" r="6"/>
    </g>
    <!-- central almond, split navy/cyan -->
    <path d="M180 94 C166 132 166 168 180 206 Z" fill="#16294C"/>
    <path d="M180 94 C194 132 194 168 180 206 Z" fill="#29ABE2"/>
  </g>

  <!-- ===== WORDMARK + TAGLINE (right) ===== -->
  <text x="486" y="138" font-family="ui-monospace, 'SF Mono', Menlo, Consolas, monospace"
        font-size="15" letter-spacing="6" fill="#1683BE">REAL&#8209;TIME · CLOSED&#8209;LOOP · MULTIMODAL</text>
  <text x="482" y="216" font-family="'Segoe UI', system-ui, -apple-system, Arial, sans-serif"
        font-size="76" font-weight="800" letter-spacing="11" fill="#16294C">THALAMUS</text>
  <rect x="486" y="240" width="120" height="3" rx="1.5" fill="#29ABE2"/>
  <text x="486" y="284" font-family="ui-monospace, 'SF Mono', Menlo, Consolas, monospace"
        font-size="17" letter-spacing="1" fill="#5A6B86">Synchronized data acquisition &amp; closed-loop control</text>
</svg>
