<svg width="128" height="128" viewBox="0 0 128 128" fill="none" xmlns="http://www.w3.org/2000/svg" role="img" aria-label="Thalamus logo">
  <defs>
    <linearGradient id="tile" x1="0" y1="0" x2="128" y2="128" gradientUnits="userSpaceOnUse">
      <stop stop-color="#16294C"/><stop offset="1" stop-color="#0B1428"/>
    </linearGradient>
    <path id="hemiL" d="M198 54 C180 38 150 32 124 42 C96 32 68 50 72 80 C44 86 36 118 58 134 C38 152 42 186 66 198 C50 222 64 254 90 258 C94 286 132 302 156 286 C176 300 198 292 200 266 C201 196 200 122 198 54 Z"/>
  </defs>
  <rect x="2" y="2" width="124" height="124" rx="28" fill="url(#tile)" stroke="#26416E" stroke-width="1.5"/>

  <g transform="translate(2,8) scale(0.3)">
    <use href="#hemiL" stroke="#9FB6DA" stroke-width="8" fill="none" stroke-linejoin="round"/>
    <use href="#hemiL" stroke="#9FB6DA" stroke-width="8" fill="none" stroke-linejoin="round" transform="translate(420,0) scale(-1,1)"/>

    <!-- left neurons (light) -->
    <g stroke="#E3ECF8" fill="none" stroke-width="5.4" stroke-linecap="round" stroke-linejoin="round">
      <path d="M150 112 C140 96 134 82 138 68"/><path d="M134 82 C124 78 116 82 110 74"/>
      <path d="M150 112 C130 104 116 106 104 96"/><path d="M150 112 C128 116 110 116 96 124"/>
      <path d="M110 116 C104 124 96 126 90 138"/><path d="M150 112 C154 96 150 82 158 72"/>
      <path d="M124 186 C108 176 96 178 86 168"/><path d="M124 186 C106 188 94 198 96 210"/>
      <path d="M124 186 C118 204 122 220 112 230"/><path d="M124 186 C140 182 150 188 160 182"/>
      <path d="M168 166 C152 160 140 170 128 164"/><path d="M168 166 C170 148 164 136 170 126"/>
      <path d="M168 166 C170 186 162 202 168 214"/>
      <path d="M150 246 C134 240 124 250 114 246"/><path d="M150 246 C150 264 142 278 148 288"/>
    </g>
    <g fill="#E3ECF8">
      <circle cx="150" cy="112" r="7.5"/><circle cx="124" cy="186" r="7.5"/><circle cx="168" cy="166" r="6"/><circle cx="150" cy="246" r="7"/>
      <circle cx="138" cy="68" r="4"/><circle cx="110" cy="74" r="4"/><circle cx="104" cy="96" r="4"/>
      <circle cx="96" cy="124" r="4"/><circle cx="90" cy="138" r="4"/><circle cx="158" cy="72" r="4"/>
      <circle cx="86" cy="168" r="4"/><circle cx="96" cy="210" r="4"/><circle cx="112" cy="230" r="4"/>
      <circle cx="128" cy="164" r="4"/><circle cx="170" cy="126" r="4"/><circle cx="168" cy="214" r="4"/>
      <circle cx="114" cy="246" r="4"/><circle cx="148" cy="288" r="4"/>
    </g>

    <!-- right circuit (cyan) -->
    <g stroke="#5CC9F2" fill="none" stroke-width="5" stroke-linecap="round" stroke-linejoin="round">
      <path d="M226 96 H252 V72"/><path d="M252 72 V58"/><path d="M226 120 H280 L302 102"/>
      <path d="M226 144 H264 V196"/><path d="M226 168 H320"/><path d="M226 192 H252 V222"/>
      <path d="M264 144 H326"/><path d="M320 168 L342 152"/>
    </g>
    <g fill="#5CC9F2">
      <circle cx="252" cy="58" r="7"/><circle cx="302" cy="102" r="7"/><circle cx="264" cy="196" r="7"/>
      <circle cx="320" cy="168" r="7"/><circle cx="252" cy="222" r="7"/><circle cx="326" cy="144" r="7"/><circle cx="342" cy="152" r="7"/>
    </g>

    <!-- central almond -->
    <path d="M210 104 C184 140 186 226 210 262 Z" fill="#E3ECF8"/>
    <path d="M210 104 C236 140 234 226 210 262 Z" fill="#29ABE2"/>
  </g>
</svg>
