<svg width="128" height="128" viewBox="0 0 128 128" fill="none" xmlns="http://www.w3.org/2000/svg" role="img" aria-label="Thalamus logo">
  <defs>
    <linearGradient id="tile" x1="0" y1="0" x2="128" y2="128" gradientUnits="userSpaceOnUse">
      <stop stop-color="#16294C"/><stop offset="1" stop-color="#0B1428"/>
    </linearGradient>
    <path id="hemiL" d="M199 44 C199 30 188 24 176 26 C150 16 116 30 110 60 C80 62 58 90 76 116 C46 138 50 196 80 214 C62 246 80 284 114 286 C122 316 154 326 174 308 C186 318 199 308 199 282 L199 44 Z"/>
  </defs>
  <rect x="2" y="2" width="124" height="124" rx="28" fill="url(#tile)" stroke="#26416E" stroke-width="1.5"/>

  <g transform="translate(0,12) scale(0.3)">
    <use href="#hemiL" stroke="#9FB6DA" stroke-width="8" fill="none" stroke-linejoin="round"/>
    <use href="#hemiL" stroke="#9FB6DA" stroke-width="8" fill="none" stroke-linejoin="round" transform="translate(420,0) scale(-1,1)"/>

    <g stroke="#E3ECF8" fill="none" stroke-width="5" stroke-linecap="round" stroke-linejoin="round">
      <path d="M188 130 C166 120 156 104 160 84"/><path d="M160 98 C148 90 134 92 124 82"/>
      <path d="M160 84 C156 70 148 62 138 59"/><path d="M188 130 C168 132 152 126 138 134"/>
      <path d="M152 126 C142 118 128 118 118 124"/><path d="M138 134 C128 140 116 138 106 146"/>
      <path d="M124 82 C116 74 105 74 97 80"/><path d="M188 114 C172 106 156 102 146 92"/>
      <path d="M160 84 C162 70 158 60 166 52"/><path d="M146 92 C142 78 134 70 126 66"/>
      <path d="M188 114 C180 96 178 82 184 68"/><path d="M184 68 C182 54 174 46 164 44"/>
      <path d="M188 162 C164 158 146 166 130 158"/><path d="M146 166 C136 174 122 174 112 184"/>
      <path d="M130 158 C120 152 108 154 100 146"/><path d="M100 146 C92 154 92 166 84 172"/>
      <path d="M188 188 C166 190 150 202 134 198"/><path d="M150 202 C140 210 128 212 118 222"/>
      <path d="M134 198 C126 206 122 218 112 224"/><path d="M184 212 C166 222 156 242 158 262"/>
      <path d="M158 242 C148 250 144 266 134 272"/><path d="M158 262 C156 282 148 296 152 308"/>
      <path d="M112 184 C104 192 104 206 96 212"/>
    </g>
    <g fill="#E3ECF8">
      <circle cx="160" cy="98" r="5.5"/><circle cx="152" cy="126" r="5.5"/><circle cx="146" cy="166" r="5.5"/>
      <circle cx="150" cy="202" r="5.5"/><circle cx="158" cy="242" r="5.5"/><circle cx="130" cy="158" r="4.5"/>
      <circle cx="138" cy="59" r="3.6"/><circle cx="97" cy="80" r="3.6"/><circle cx="106" cy="146" r="3.6"/>
      <circle cx="146" cy="92" r="3.6"/><circle cx="84" cy="172" r="3.6"/><circle cx="112" cy="184" r="3.6"/>
      <circle cx="118" cy="222" r="3.6"/><circle cx="134" cy="272" r="3.6"/><circle cx="152" cy="308" r="3.6"/>
      <circle cx="96" cy="212" r="3.6"/><circle cx="166" cy="52" r="3.6"/><circle cx="164" cy="44" r="3.6"/>
    </g>

    <g stroke="#5CC9F2" fill="none" stroke-width="4.8" stroke-linecap="round" stroke-linejoin="round">
      <path d="M232 100 H252 V64"/><path d="M232 100 H268 V86"/><path d="M232 122 H286 L304 106"/>
      <path d="M232 144 H258 V116"/><path d="M232 144 H312"/><path d="M232 166 H282 V214"/>
      <path d="M232 210 H296 V240"/><path d="M282 166 H326 M326 166 L346 154"/><path d="M312 144 L334 130"/>
    </g>
    <g fill="#5CC9F2">
      <circle cx="252" cy="64" r="6.5"/><circle cx="268" cy="86" r="6.5"/><circle cx="304" cy="106" r="6.5"/>
      <circle cx="258" cy="116" r="6.5"/><circle cx="334" cy="130" r="6.5"/><circle cx="346" cy="154" r="6.5"/>
      <circle cx="282" cy="214" r="6.5"/><circle cx="296" cy="240" r="6.5"/><circle cx="312" cy="144" r="6.5"/>
    </g>

    <path d="M210 88 C182 126 182 218 210 254 Z" fill="#E3ECF8"/>
    <path d="M210 88 C238 126 238 218 210 254 Z" fill="#29ABE2"/>
  </g>
</svg>
