<svg width="128" height="128" viewBox="0 0 128 128" fill="none" xmlns="http://www.w3.org/2000/svg" role="img" aria-label="Thalamus logo">
  <rect x="2" y="2" width="124" height="124" rx="26" fill="#FFFFFF" stroke="#DDE5F0" stroke-width="1.5"/>
  <g transform="translate(12.0,12.0) scale(0.1214)">
<path d="M0 0 C282.81 0 565.62 0 857 0 C857 282.81 857 565.62 857 857 C574.19 857 291.38 857 0 857 C0 574.19 0 291.38 0 0 Z " fill="#FEFEFE" transform="translate(0,0)"/>
<path d="M0 0 C0.91 -0.01 1.82 -0.02 2.76 -0.02 C4.69 -0.04 6.62 -0.05 8.55 -0.06 C11.49 -0.07 14.43 -0.12 17.36 -0.16 C19.24 -0.17 21.12 -0.18 23 -0.19 C23.87 -0.21 24.74 -0.22 25.64 -0.24 C31.8 -0.22 35.55 1.18 40.9 4.24 C42.95 5.02 45.01 5.77 47.09 6.49 C68.77 14.76 85.63 30.9 95.22 51.88 C101.79 66.88 104.19 81.81 104.2 98.13 C104.21 99.33 104.22 100.54 104.23 101.78 C104.25 105.7 104.26 109.63 104.27 113.55 C104.28 116.3 104.29 119.05 104.3 121.8 C104.31 127.53 104.32 133.27 104.32 139 C104.33 146.35 104.37 153.7 104.41 161.05 C104.44 166.71 104.45 172.38 104.45 178.04 C104.45 180.75 104.47 183.46 104.49 186.17 C104.51 189.95 104.51 193.73 104.5 197.51 C104.51 198.07 104.51 198.07 104.54 200.9 C104.47 208.5 104.47 208.5 101.49 212.36 C101.06 212.67 101.06 212.67 98.9 214.24 C98.24 214.81 97.59 215.39 96.91 215.98 C94.87 217.66 92.82 219.33 90.77 220.99 C90.06 221.58 89.34 222.17 88.61 222.77 C87.92 223.33 87.23 223.89 86.52 224.47 C85.89 224.98 85.27 225.49 84.63 226.01 C82.9 227.24 82.9 227.24 79.9 228.24 C78.91 227.58 77.92 226.92 76.9 226.24 C76.52 223.83 76.52 223.83 76.52 220.74 C76.51 219.57 76.5 218.4 76.5 217.2 C76.5 215.91 76.51 214.62 76.51 213.29 C76.51 212.61 76.51 212.61 76.5 209.19 C76.49 206.24 76.48 203.29 76.49 200.34 C76.49 195.67 76.48 190.99 76.46 186.32 C76.42 176.37 76.41 166.43 76.4 156.49 C76.39 145.79 76.37 135.1 76.33 124.41 C76.31 120.53 76.3 116.65 76.31 112.77 C76.31 108.43 76.3 104.08 76.28 99.74 C76.29 98.47 76.3 97.21 76.3 95.91 C76.17 76.13 70.23 59.27 56.9 44.61 C43.99 32.25 26.68 27.58 9.24 27.84 C-8.2 28.45 -24.06 34.48 -37.1 46.24 C-37.69 46.73 -38.27 47.23 -38.88 47.74 C-50.32 58.12 -58.16 74.25 -59.28 89.68 C-59.63 104.18 -58.69 116.17 -53.35 129.8 C-52.07 133.33 -51.53 135.54 -52.1 139.24 C-53.9 141.94 -55.19 143.78 -58.1 145.24 C-61.96 145.76 -63.76 145.43 -67.16 143.49 C-76.64 133.01 -79.29 115.49 -79.16 101.81 C-79.16 100.44 -79.15 99.07 -79.14 97.65 C-79.13 96.24 -79.11 94.82 -79.1 93.36 C-79.08 90.53 -79.06 87.7 -79.04 84.87 C-79.03 84.25 -79.03 84.25 -79 81.09 C-79.1 78.24 -79.1 78.24 -80.1 77.24 C-101.61 76.33 -122.04 90.04 -137.57 103.35 C-147.11 112.26 -154.45 124.09 -159.1 136.24 C-159.47 137.18 -159.84 138.12 -160.21 139.09 C-167.65 159.6 -167.58 183.52 -158.79 203.55 C-157.58 206.12 -156.35 208.69 -155.1 211.24 C-154.64 212.24 -154.18 213.24 -153.7 214.27 C-146.84 228.13 -135.55 236.89 -122.51 244.52 C-108.33 252.84 -100.31 260.82 -95.14 276.58 C-92.78 285.71 -93.76 295.52 -94.04 304.86 C-94.77 330.56 -94.77 330.56 -90.1 341.24 C-89.59 342.44 -89.07 343.64 -88.54 344.88 C-88.06 345.74 -87.59 346.6 -87.1 347.49 C-86.63 348.38 -86.15 349.27 -85.66 350.19 C-84.1 352.24 -84.1 352.24 -80.1 353.24 C-80.06 352.81 -80.06 352.81 -79.84 350.67 C-78.14 336.48 -73.3 325.09 -66.19 312.89 C-59.9 301.9 -56.9 290.9 -60.1 278.3 C-60.43 277.29 -60.76 276.28 -61.1 275.24 C-61.35 271.43 -61.35 271.43 -61.1 268.24 C-59.1 266.24 -59.1 266.24 -56.23 266.05 C-53.1 267.24 -53.1 267.24 -51.86 269.18 C-46.89 280.24 -46.42 293.1 -49.72 304.77 C-52.4 311.51 -55.93 317.83 -59.41 324.19 C-65.84 336.03 -69.55 347.52 -66.45 361.08 C-65.52 363.34 -64.48 365.22 -63.1 367.24 C-62.64 367.93 -62.18 368.63 -61.7 369.34 C-53.93 379.49 -41.51 382.24 -29.71 385.26 C-26.1 386.24 -26.1 386.24 -25.1 387.24 C-24.75 392.56 -24.83 395.93 -28.1 400.24 C-29.1 401.24 -29.1 401.24 -31.08 401.26 C-57.13 399.22 -79.27 387.08 -96.66 367.93 C-110.99 351.11 -115.5 328.76 -113.88 307.23 C-113.78 306.24 -113.69 305.25 -113.6 304.24 C-112.52 292.3 -111.75 280.59 -119.03 270.42 C-123.27 265.95 -128.78 263.26 -134.1 260.24 C-152.78 248.85 -170.61 233.03 -177.1 211.24 C-179.16 210.8 -179.16 210.8 -182.1 211.24 C-184.71 213.5 -186.86 215.65 -189.1 218.24 C-189.7 218.92 -190.29 219.6 -190.91 220.3 C-207.53 240.2 -219.41 263.21 -226.1 288.24 C-226.26 288.82 -226.26 288.82 -227.05 291.75 C-232.87 315.82 -232.78 342.44 -225.94 366.28 C-225.04 370.53 -224.95 373.06 -226.1 377.24 C-228.36 380.67 -228.36 380.67 -231.23 384.11 C-231.73 384.73 -232.23 385.34 -232.74 385.98 C-234.82 388.53 -236.94 391.04 -239.07 393.55 C-258.86 417.49 -263.77 448.18 -262.1 478.24 C-261.46 484.12 -259.99 489.64 -258.1 495.24 C-257.67 496.59 -257.23 497.93 -256.78 499.32 C-252.3 512.19 -245.97 523.88 -237.1 534.24 C-236.4 535.1 -235.69 535.96 -234.97 536.84 C-220.74 553.49 -201.66 563.18 -180.89 569.21 C-176.64 570.49 -173.82 571.68 -171.1 575.24 C-170.04 578.61 -170.04 578.61 -170.1 582.24 C-172.24 585.74 -173.7 587.79 -177.67 589.06 C-182.45 589.31 -186.43 588.11 -190.98 586.74 C-191.91 586.46 -192.84 586.19 -193.8 585.9 C-207.6 581.68 -219.62 575.67 -231.55 567.59 C-235.1 565.24 -235.1 565.24 -239.1 563.24 C-244.51 568.64 -243.4 576.66 -243.42 583.98 C-243.04 606.93 -232.64 627.55 -216.41 643.35 C-211.88 647.3 -207.07 650.62 -202.04 653.89 C-196.49 658.33 -195.71 663.37 -194.73 670.18 C-191.76 688.5 -184.61 705.36 -172.1 719.24 C-171.46 719.98 -170.82 720.73 -170.16 721.5 C-156.38 736.5 -133.81 746.88 -113.68 748.52 C-111.12 748.55 -108.64 748.55 -106.1 748.24 C-105.1 747.24 -105.1 747.24 -105.04 744.35 C-105.06 743.07 -105.08 741.8 -105.11 740.48 C-105.13 739.07 -105.14 737.66 -105.16 736.2 C-105.2 733.24 -105.26 730.28 -105.32 727.33 C-105.45 714.27 -103.88 701.8 -99.23 689.55 C-98.75 688.27 -98.28 686.99 -97.8 685.66 C-95.51 681.04 -93.07 677.95 -88.16 676.18 C-84.09 676.26 -82.22 677.7 -79.1 680.24 C-77.09 684.26 -77.85 688.43 -79.12 692.6 C-79.57 693.72 -80.02 694.84 -80.48 695.99 C-88.38 717.39 -86.82 740.17 -77.54 760.93 C-69.15 778.48 -53.42 792.77 -35.24 799.71 C-11.95 807.36 12.17 807.39 34.46 796.18 C53.34 785.39 67.52 768.34 73.34 747.3 C75.4 738.96 76.05 730.79 76.1 722.24 C76.11 721.28 76.12 720.31 76.13 719.31 C76.17 716.14 76.19 712.97 76.21 709.8 C76.24 707.59 76.26 705.38 76.28 703.18 C76.33 697.38 76.38 691.59 76.43 685.8 C76.48 679.88 76.54 673.96 76.59 668.04 C76.7 656.44 76.8 644.84 76.9 633.24 C79.16 632.59 79.16 632.59 81.9 632.24 C84.78 634.01 87.27 635.77 89.9 637.86 C90.6 638.4 91.3 638.93 92.02 639.48 C101.82 647.09 101.82 647.09 103.9 651.24 C104.01 653.84 104.06 656.44 104.08 659.04 C104.08 659.85 104.09 660.66 104.1 661.49 C104.12 664.17 104.13 666.86 104.14 669.54 C104.14 670.46 104.14 671.39 104.15 672.34 C104.17 677.24 104.18 682.13 104.19 687.03 C104.2 692.04 104.24 697.05 104.28 702.06 C104.31 705.95 104.31 709.84 104.32 713.73 C104.32 715.57 104.33 717.42 104.35 719.26 C104.51 735.83 102.76 752.34 96.15 767.74 C95.8 768.57 95.46 769.4 95.1 770.25 C84.52 794.78 63.28 814.57 38.91 825.08 C10.66 835.94 -18.82 836.64 -47.1 825.24 C-67.9 815.61 -84.4 801.97 -97.08 783.04 C-99.19 780.11 -100.69 778.52 -104.3 777.8 C-105.15 777.71 -105.99 777.62 -106.86 777.53 C-107.81 777.42 -108.76 777.31 -109.73 777.2 C-110.74 777.09 -111.75 776.98 -112.79 776.86 C-146.27 772.8 -176.75 758.88 -198.04 732.18 C-207.34 719.86 -214.39 706.48 -218.73 691.68 C-218.95 690.94 -219.16 690.2 -219.39 689.44 C-220.26 686.43 -221.06 683.48 -221.55 680.38 C-223.11 671.57 -230.79 667.06 -237.34 661.72 C-241.06 658.59 -244.12 655.05 -247.1 651.24 C-247.91 650.2 -248.72 649.17 -249.55 648.1 C-263.49 629.48 -271.51 606.72 -271.48 583.36 C-271.48 582.87 -271.48 582.87 -271.48 580.39 C-271.31 568.97 -268.99 558.05 -266.31 546.98 C-266.04 543.5 -266.89 541.96 -268.66 538.99 C-269.22 538.03 -269.78 537.07 -270.36 536.08 C-271.43 534.32 -272.52 532.57 -273.63 530.83 C-290.85 503.42 -295.28 467.83 -289.07 436.38 C-283.29 411.59 -272.79 391.36 -257.68 370.96 C-255.87 367.84 -255.74 366.52 -256.23 362.99 C-256.35 361.94 -256.48 360.89 -256.61 359.81 C-256.77 358.63 -256.93 357.45 -257.1 356.24 C-260.87 327.58 -259.13 300.06 -251.1 272.24 C-250.76 271 -250.41 269.75 -250.05 268.47 C-240.92 238.43 -222.81 212.05 -200.29 190.5 C-196.98 187.3 -194.37 184.63 -193.83 179.85 C-193.82 178.97 -193.81 178.1 -193.79 177.2 C-193.78 176.7 -193.78 176.7 -193.72 174.22 C-193.7 173.17 -193.68 172.13 -193.66 171.05 C-192.58 137.35 -180.76 106.02 -156.1 82.24 C-133.87 63 -108.63 52.1 -79.68 48.11 C-74.02 46.73 -71.1 43.56 -67.73 38.99 C-67.12 38.2 -66.52 37.41 -65.89 36.59 C-65.6 36.2 -65.6 36.2 -64.1 34.24 C-51.45 17.7 -33.36 9.24 -14.23 2.37 C-9.23 0.56 -5.36 0.04 0 0 Z " fill="#16294C" transform="translate(316.1015625,-0.23828125)"/>
<path d="M0 0 C0.89 -0.01 1.78 -0.01 2.7 -0.02 C4.57 -0.03 6.45 -0.02 8.32 -0.01 C11.15 0 13.98 -0.03 16.81 -0.07 C27.11 -0.11 35.09 0.66 44.36 5.57 C46.31 6.36 48.26 7.13 50.23 7.88 C68.98 15.8 82.47 27.81 94.29 44.26 C98.03 48.43 102.07 48.77 107.48 49.45 C139.64 53.55 169.5 70.12 190.04 95.25 C207.58 118.4 215.34 144.4 215.79 173.23 C215.8 173.79 215.8 173.79 215.88 176.64 C215.9 177.66 215.92 178.67 215.94 179.72 C216.65 184.6 219.08 187.63 222.86 190.63 C239.43 204.76 251.51 223.33 261.36 242.57 C261.99 243.8 262.63 245.03 263.28 246.29 C275.78 271.74 281.52 299.7 281.61 327.94 C281.61 329.06 281.61 330.17 281.62 331.32 C281.56 339.83 280.76 348.06 279.33 356.45 C278.23 363.08 277.74 368.06 281.54 373.97 C282.47 375.16 283.41 376.33 284.36 377.5 C295.54 392.05 303.23 408.16 308.61 425.69 C308.73 426.09 308.73 426.09 309.35 428.11 C319.59 462.9 313.4 500.86 296.29 532.26 C294.36 535.57 294.36 535.57 292.18 538.5 C288.22 545.16 289.48 551.24 291.29 558.38 C298.02 588.44 291.69 618.68 275.36 644.57 C272.05 649.21 268.26 653.41 264.36 657.57 C263.57 658.41 262.78 659.25 261.97 660.12 C256.42 665.87 256.42 665.87 253.21 667.98 C246.28 672.69 244.5 677.05 242.67 685.07 C242.11 687.22 241.54 689.37 240.97 691.52 C240.7 692.56 240.43 693.6 240.15 694.67 C232.08 724.09 211.56 746.61 185.96 762.09 C179.69 765.65 173.17 768.23 166.36 770.57 C165.18 770.97 164.01 771.38 162.8 771.8 C154.59 774.47 146.45 776.25 137.84 776.95 C137.44 776.99 137.44 776.99 135.42 777.17 C133.82 777.31 132.23 777.42 130.64 777.52 C126.76 777.85 124.61 778.36 121.55 780.82 C119.48 783.41 117.5 786.02 115.61 788.75 C98.89 811.96 74.56 827.18 46.36 832.57 C14.55 837.38 -15.37 829.35 -41.16 810.35 C-64.61 791.61 -78.28 765.34 -81.64 735.57 C-81.98 729.11 -82.05 722.66 -82.09 716.2 C-82.09 715.3 -82.1 714.39 -82.11 713.46 C-82.14 708.69 -82.17 703.91 -82.18 699.14 C-82.2 694.23 -82.26 689.32 -82.32 684.41 C-82.37 680.61 -82.38 676.8 -82.39 673 C-82.39 671.19 -82.41 669.38 -82.45 667.57 C-82.71 651.72 -82.71 651.72 -78.31 646.57 C-76.48 644.92 -76.48 644.92 -74.64 643.57 C-73.54 642.68 -72.43 641.8 -71.29 640.89 C-70.21 640.16 -69.13 639.44 -68.02 638.69 C-66.93 637.95 -65.85 637.21 -64.73 636.45 C-62.06 634.82 -59.58 633.6 -56.64 632.57 C-54.03 635.18 -54.39 637.04 -54.35 640.6 C-54.36 641.45 -54.36 642.3 -54.36 643.17 C-54.35 643.61 -54.35 643.61 -54.34 645.87 C-54.32 647.81 -54.31 649.75 -54.31 651.7 C-54.3 654.79 -54.28 657.87 -54.26 660.96 C-54.21 667.54 -54.18 674.11 -54.14 680.69 C-54.11 688.27 -54.07 695.84 -54.01 703.42 C-53.99 706.44 -53.98 709.46 -53.97 712.47 C-53.83 738.44 -50.26 761.58 -31.29 780.99 C-30.42 781.84 -29.54 782.69 -28.64 783.57 C-28.32 783.9 -28.32 783.9 -26.66 785.58 C-11.48 800.01 9.43 806.02 29.92 805.78 C52.9 804.34 71.19 795.69 87.36 779.57 C88.02 778.92 88.69 778.27 89.38 777.61 C102.66 763.79 108.22 743.34 108.39 724.62 C107.94 713.43 105.88 702.37 101.54 692 C100.14 687.96 100.17 685.67 101.36 681.57 C103.54 678.37 105.02 677.67 108.73 676.5 C112.36 676.57 112.36 676.57 115.48 678.19 C124.96 689.32 127.51 707.73 127.45 721.91 C127.45 722.29 127.45 722.29 127.45 724.23 C127.44 726.65 127.43 729.08 127.42 731.5 C127.41 733.16 127.41 734.81 127.4 736.47 C127.39 740.5 127.38 744.53 127.36 748.57 C151.02 749.16 172.96 740.07 190.12 723.8 C190.86 723.06 191.6 722.33 192.36 721.57 C193.05 720.87 193.75 720.17 194.46 719.46 C207.94 705.15 214.18 687.69 217.27 668.64 C218.8 660.36 222.39 655.72 228.91 650.54 C229.68 650.05 230.44 649.57 231.23 649.07 C250.13 636.35 260.28 617.85 264.95 595.78 C265.5 591.41 265.54 587.09 265.54 582.69 C265.56 581.83 265.57 580.97 265.58 580.09 C265.59 574.59 265.15 569.79 263.36 564.57 C262.37 564.24 261.38 563.91 260.36 563.57 C257.75 565.16 257.75 565.16 254.61 567.5 C239.17 578.45 219.64 588.41 200.36 589.57 C197.11 588.27 195.67 586.96 193.48 584.25 C192.04 580.81 192.23 579.1 193.36 575.57 C196.11 572.29 198.4 570.91 202.47 569.71 C202.97 569.55 202.97 569.55 205.48 568.78 C206.53 568.46 207.58 568.14 208.67 567.82 C232.67 560.16 253.8 546.3 267.36 524.57 C267.68 524.07 267.68 524.07 269.31 521.57 C284.38 497.14 288.62 467.7 282.54 439.84 C277.69 420.62 270.21 403.73 257.36 388.57 C255.87 386.74 254.39 384.9 252.92 383.07 C252.26 382.25 251.6 381.44 250.92 380.6 C247.82 376.58 248.15 373.62 248.36 368.57 C248.93 365.57 249.55 362.65 250.29 359.69 C260.3 319.18 249.31 276.73 228.58 241.55 C225.23 236.11 221.54 231.06 217.47 226.13 C215.95 224.29 214.48 222.42 213.02 220.53 C212.25 219.53 211.47 218.53 210.67 217.5 C209.96 216.58 209.26 215.67 208.53 214.72 C206.1 212.31 204.72 211.85 201.36 211.57 C198.97 215.34 196.62 219.09 194.44 222.98 C189.07 232.41 183.08 239.91 175.36 247.57 C174.7 248.24 174.05 248.92 173.38 249.61 C168.62 254.19 162.96 257.15 157.22 260.3 C148.16 265.29 139.96 270.36 136.66 280.76 C134.66 290.88 135.28 301.2 135.55 311.45 C136 330.1 132.59 346.26 120.11 360.88 C114.31 366.96 107.45 372.92 99.36 375.57 C95.77 375.42 93.92 374.99 91.04 372.82 C89.07 370.19 88.36 368.87 88.36 365.57 C90.96 360.91 93.45 358.57 98.04 355.94 C107.57 349.81 113.86 341.31 116.78 330.32 C118.42 319.65 117.7 308.62 116.59 297.91 C115.09 283.13 118.74 269.18 127.99 257.5 C132.45 252.55 137.7 249.39 143.43 246.06 C165.25 233.36 178.69 217.21 185.36 192.57 C191.06 170.32 187.55 144.67 176.25 124.87 C174.05 121.36 171.75 117.95 169.36 114.57 C168.72 113.66 168.08 112.75 167.42 111.82 C153.92 93.83 131.51 81.08 109.36 77.57 C105.36 77.38 105.36 77.38 102.36 77.57 C101.36 78.57 101.36 78.57 101.31 81.55 C101.32 82.21 101.32 82.21 101.4 85.54 C101.41 86.27 101.41 86.27 101.46 89.96 C101.51 93.01 101.58 96.07 101.66 99.12 C101.82 113.27 99.96 131.05 90.98 142.63 C88.05 144.79 85.96 145.97 82.36 146.57 C78.73 145.05 76.05 143.14 74.36 139.57 C74.36 133.87 75.63 129.63 77.79 124.38 C84.69 107.29 83.84 88.24 77 71.27 C73.97 64.21 70.58 58.19 65.36 52.57 C64.63 51.75 63.9 50.93 63.15 50.09 C50.6 36.69 34.32 29.21 15.97 28.36 C-3.02 28.04 -19.63 32.14 -34.21 44.88 C-48.71 59.16 -53.77 77.02 -53.96 96.94 C-53.96 98.21 -53.96 99.48 -53.96 100.78 C-53.97 102.15 -53.98 103.51 -53.99 104.92 C-54.02 108.63 -54.04 112.34 -54.05 116.05 C-54.06 119.94 -54.09 123.84 -54.12 127.73 C-54.16 135.08 -54.2 142.43 -54.23 149.78 C-54.27 158.16 -54.32 166.54 -54.37 174.92 C-54.47 192.13 -54.56 209.35 -54.64 226.57 C-56.92 227.21 -56.92 227.21 -59.64 227.57 C-62.35 225.78 -64.65 224.04 -67.08 221.94 C-67.72 221.41 -68.37 220.87 -69.03 220.32 C-70.3 219.26 -71.57 218.19 -72.83 217.11 C-74.55 215.65 -76.3 214.22 -78.05 212.79 C-80.64 210.57 -80.64 210.57 -81.64 208.57 C-81.74 206.96 -81.78 205.34 -81.78 203.73 C-81.79 202.71 -81.8 201.69 -81.8 200.64 C-81.8 199.51 -81.8 198.39 -81.81 197.23 C-81.81 196.04 -81.82 194.86 -81.82 193.64 C-81.84 189.71 -81.84 185.78 -81.85 181.84 C-81.85 179.11 -81.86 176.37 -81.86 173.63 C-81.88 167.88 -81.88 162.13 -81.88 156.37 C-81.89 149.03 -81.91 141.7 -81.94 134.36 C-81.96 128.7 -81.97 123.04 -81.97 117.37 C-81.97 114.67 -81.98 111.97 -81.99 109.27 C-82.12 81.02 -79.64 53.48 -59.64 31.57 C-58.75 30.58 -57.85 29.59 -56.93 28.57 C-45.84 16.89 -33.28 10.69 -18.64 4.57 C-18.31 4.4 -18.31 4.4 -16.63 3.55 C-10.96 0.75 -6.29 -0.04 0 0 Z " fill="#16294C" transform="translate(519.64453125,-0.56640625)"/>
<path d="M0 0 C1.32 0.66 2.64 1.32 4 2 C4.4 5.38 4.52 8.43 4.48 11.81 C4.48 12.84 4.49 13.87 4.49 14.93 C4.5 18.41 4.48 21.88 4.45 25.36 C4.45 27.84 4.45 30.33 4.46 32.81 C4.46 39.57 4.43 46.33 4.41 53.09 C4.38 60.15 4.38 67.2 4.37 74.26 C4.36 86.11 4.34 97.97 4.3 109.82 C4.27 122.03 4.24 134.23 4.22 146.44 C4.22 146.82 4.22 146.82 4.22 148.72 C4.21 152.5 4.21 156.27 4.2 160.04 C4.16 191.36 4.09 222.68 4 254 C2.68 254.33 1.36 254.66 0 255 C-2.12 253.41 -2.12 253.41 -4.44 251.06 C-11.82 244.06 -21.28 236.7 -31.75 235.75 C-34 236 -34 236 -36 238 C-35 242 -35 242 -32.84 243.54 C-31.9 244.02 -30.96 244.5 -30 245 C-29.49 245.27 -29.49 245.27 -26.91 246.61 C-25.83 247.17 -24.74 247.73 -23.62 248.31 C-8.94 256.27 -3.08 267.15 1.84 282.77 C3.74 289.69 4.15 296.33 4.18 303.48 C4.18 304.41 4.19 305.33 4.2 306.28 C4.22 309.32 4.23 312.36 4.24 315.39 C4.24 316.43 4.25 317.47 4.25 318.54 C4.27 324.03 4.29 329.52 4.3 335.01 C4.31 340.68 4.34 346.36 4.38 352.04 C4.41 356.4 4.41 360.76 4.42 365.13 C4.42 367.22 4.44 369.31 4.45 371.41 C4.48 374.33 4.48 377.24 4.47 380.16 C4.48 381.03 4.5 381.9 4.51 382.8 C4.49 385.2 4.49 385.2 4 389 C2.68 389.66 1.36 390.32 0 391 C-3.03 389.39 -3.03 389.39 -6.5 386.81 C-7.11 386.36 -7.73 385.9 -8.36 385.43 C-14.61 380.7 -20.41 375.5 -26 370 C-26.67 369.35 -27.33 368.69 -28.02 368.02 C-40.62 354.68 -47.45 335.94 -47.28 317.76 C-46.57 308.11 -42.73 299.86 -37.98 291.56 C-37.65 290.71 -37.33 289.87 -37 289 C-37.66 287.68 -38.32 286.36 -39 285 C-42.14 285.26 -43.67 285.69 -46 287.88 C-56.31 303.99 -57.12 320.45 -55 339 C-59 339 -59 339 -61.3 337.04 C-81.82 314.26 -98.53 287.92 -108 258.62 C-108.27 257.81 -108.53 256.99 -108.81 256.15 C-112.97 242.47 -114.49 228.93 -114.34 214.72 C-114.31 212.34 -114.32 209.96 -114.32 207.58 C-114.3 200.71 -114.16 194.6 -112 188 C-108 189 -108 189 -106.39 191.55 C-105.87 192.65 -105.35 193.75 -104.81 194.88 C-98.94 206.24 -91.19 215.51 -80 222 C-76.76 222.87 -76.76 222.87 -74 223 C-72 221 -72 221 -71.96 218.7 C-73.45 214.83 -76.3 213.12 -79.56 210.81 C-92.32 201.21 -100.43 188.68 -103.44 172.81 C-108.03 134.88 -87.22 97.6 -65.94 67.75 C-65.4 66.99 -64.87 66.24 -64.31 65.46 C-61.69 61.87 -60.05 60.02 -56 58 C-55.67 58.17 -55.67 58.17 -54 59 C-53.65 61.43 -53.4 63.87 -53.19 66.31 C-51.58 79.74 -45.72 89.56 -38.72 100.91 C-30.47 114.42 -26.68 127.53 -29.65 143.48 C-32.69 154.37 -38.66 162.61 -46 171 C-46.33 171.99 -46.66 172.98 -47 174 C-46.34 174.99 -45.68 175.98 -45 177 C-40.74 176.9 -39 176 -35.62 173.31 C-23.77 160.53 -19.61 145.04 -19.8 128.09 C-20.54 113.2 -28.07 100.64 -35.75 88.25 C-42.94 76.39 -46.12 65.44 -43.3 51.57 C-39.5 37.97 -31.62 28.91 -22 19 C-21.15 18.1 -20.3 17.2 -19.42 16.27 C-13.66 10.28 -7.38 3.94 0 0 Z " fill="#16294C" transform="translate(416,234)"/>
<path d="M0 0 C4.55 1.14 7.3 3.26 10.88 6.12 C11.5 6.62 12.12 7.12 12.77 7.63 C17.55 11.49 22.21 15.41 25 21 C25.13 23.28 25.2 25.57 25.24 27.86 C25.27 29.31 25.29 30.76 25.32 32.25 C25.41 38.91 25.47 45.56 25.51 52.22 C25.54 55.73 25.59 59.23 25.66 62.74 C25.74 66.98 25.78 71.22 25.8 75.47 C25.81 77.08 25.84 78.69 25.88 80.3 C26.21 94.45 26.21 94.45 21.01 100.88 C20.29 101.62 19.56 102.36 18.82 103.12 C16.28 105.75 16.02 107.7 15.75 111.31 C16.03 115.42 16.68 117.6 19 121 C23.61 124.21 27.47 124.52 33 124 C36.92 122.67 38.54 121.68 40.88 118.25 C42.71 112.94 42.73 109.55 40.31 104.44 C38 101 38 101 35.39 98.67 C31.7 93 32.34 87.54 32.44 80.92 C32.44 79.56 32.45 78.2 32.45 76.79 C32.46 73.92 32.48 71.04 32.51 68.17 C32.56 63.75 32.57 59.34 32.58 54.92 C32.59 52.13 32.61 49.34 32.63 46.55 C32.63 45.22 32.64 43.89 32.65 42.53 C32.66 41.3 32.68 40.08 32.69 38.82 C32.7 38.28 32.7 38.28 32.73 35.55 C33 33 33 33 35 31 C44.95 33.49 54.26 48.8 60 57 C61.26 60.77 61.16 64.3 61.18 68.23 C61.18 68.65 61.18 68.65 61.2 70.78 C61.22 73.55 61.23 76.33 61.24 79.11 C61.24 80.06 61.25 81.01 61.25 81.99 C61.27 87.02 61.29 92.04 61.3 97.07 C61.31 102.26 61.34 107.44 61.38 112.63 C61.41 116.62 61.41 120.62 61.42 124.61 C61.42 126.52 61.43 128.43 61.45 130.35 C61.48 133.02 61.48 135.7 61.47 138.38 C61.48 139.17 61.5 139.95 61.51 140.77 C61.45 146.97 59.41 150.24 55.43 154.8 C55.18 155.04 55.18 155.04 53.92 156.28 C53.34 156.85 52.77 157.41 52.18 158 C51.57 158.59 50.96 159.18 50.34 159.79 C49.7 160.41 49.07 161.04 48.42 161.69 C46.41 163.67 44.39 165.65 42.38 167.62 C39.71 170.24 37.05 172.85 34.4 175.48 C33.79 176.07 33.18 176.67 32.55 177.28 C26.17 183.58 26.17 183.58 25.81 188.68 C25.83 189.69 25.85 190.69 25.87 191.73 C25.86 192.84 25.86 193.96 25.86 195.11 C25.87 197.43 25.9 199.75 25.96 202.07 C25.89 209.99 24.34 214.08 18.84 219.82 C15.69 223.55 15.72 226.18 16 231 C17.67 235.15 19.1 237.33 22.69 240 C27.07 241.32 30.61 241.34 35 240 C38.57 237.19 39.96 235.09 42 231 C42.67 225.1 41.33 221.86 38 217 C37.14 216.34 36.28 215.68 35.39 215 C31.77 210.45 32.31 206.21 32.44 200.56 C32.43 199.54 32.42 198.51 32.4 197.46 C32.47 190.38 33.52 186.5 38.63 181.35 C40.56 179.51 42.52 177.72 44.5 175.94 C67.42 154.87 67.42 154.87 68.4 146.63 C68.41 145.34 68.42 144.06 68.43 142.73 C68.45 141.27 68.47 139.81 68.49 138.3 C68.5 136.72 68.51 135.13 68.51 133.54 C68.53 131.91 68.55 130.28 68.57 128.65 C68.61 124.38 68.64 120.1 68.67 115.82 C68.7 111.45 68.75 107.08 68.79 102.71 C68.88 94.14 68.94 85.57 69 77 C70.32 76.67 71.64 76.34 73 76 C95.49 104.71 107.88 142.47 114 178 C114.19 179.03 114.37 180.05 114.56 181.11 C116.12 190.59 116.37 199.94 116.37 209.53 C116.37 212.17 116.41 214.8 116.45 217.44 C116.7 256.29 98.85 294.72 74 324 C73.34 324.66 72.68 325.32 72 326 C70.68 325.67 69.36 325.34 68 325 C67.9 317.42 67.83 309.84 67.78 302.26 C67.76 299.68 67.73 297.1 67.7 294.52 C67.65 290.82 67.63 287.11 67.61 283.4 C67.59 282.25 67.57 281.1 67.55 279.91 C67.54 272.25 68.76 268.56 73.98 262.82 C74.32 262.49 74.32 262.49 76.04 260.84 C76.78 260.11 77.53 259.38 78.3 258.62 C79.07 257.88 79.83 257.14 80.62 256.38 C82.16 254.89 83.7 253.4 85.23 251.9 C85.9 251.25 86.58 250.59 87.28 249.92 C91.31 245.43 91.24 241.27 91.17 235.61 C91.17 233.94 91.18 232.26 91.19 230.58 C91.19 227.95 91.19 225.32 91.15 222.69 C90.98 206.17 90.98 206.17 95.49 200.48 C96.66 199.32 97.83 198.16 99 197 C100.71 191.86 100.78 187.59 98.38 182.69 C95.66 179.62 93.89 178.27 90 177 C85.07 177 82.63 177.56 78.56 180.38 C74.81 184.22 74.65 187.42 74.71 192.72 C75.27 197.19 78.08 200.05 81.11 203.18 C83.62 206.92 83.52 209.45 83.53 213.93 C83.53 214.31 83.53 214.31 83.54 216.22 C83.55 217.82 83.54 219.41 83.52 221 C83.5 223.43 83.52 225.85 83.55 228.28 C83.54 229.83 83.54 231.38 83.53 232.93 C83.53 234.34 83.52 235.74 83.52 237.19 C82.68 243.33 79.3 246.97 74.96 251.16 C74.22 251.89 73.47 252.62 72.7 253.38 C71.93 254.12 71.17 254.86 70.38 255.62 C68.84 257.11 67.3 258.6 65.77 260.1 C65.1 260.75 64.42 261.41 63.72 262.08 C60.01 266.22 59.75 269.65 59.74 274.97 C59.74 275.68 59.74 275.68 59.72 279.28 C59.72 280.03 59.72 280.79 59.73 281.57 C59.73 283.95 59.71 286.33 59.7 288.71 C59.65 295.48 59.63 302.24 59.62 309.01 C59.61 313.15 59.59 317.29 59.55 321.43 C59.54 323 59.54 324.58 59.55 326.15 C59.55 328.36 59.53 330.57 59.51 332.77 C59.51 334.03 59.51 335.28 59.51 336.57 C58.36 344.32 51.79 349.61 46.5 354.94 C46.12 355.33 46.12 355.33 44.2 357.34 C43.46 358.08 42.73 358.82 41.97 359.59 C41.64 359.93 41.64 359.93 39.95 361.65 C39.63 361.87 39.63 361.87 38 363 C34 362 34 362 33 361 C32.86 359.34 32.8 357.67 32.76 356 C32.73 354.93 32.71 353.86 32.68 352.76 C32.6 347.83 32.53 342.9 32.49 337.98 C32.45 335.38 32.41 332.79 32.34 330.2 C32.25 326.46 32.21 322.72 32.18 318.97 C32.15 317.82 32.11 316.68 32.07 315.49 C32.09 307.71 33.87 303.73 39.18 298.02 C41.65 295.28 41.97 293.34 42.25 289.69 C41.97 285.58 41.32 283.4 39 280 C34.41 276.79 30.52 276.4 25 277 C21.34 278.79 19.44 280.39 17.06 283.69 C15.65 288.09 15.44 291.67 17 296 C18.29 297.49 19.63 298.94 21.01 300.35 C26.37 306.87 26.14 312.97 26.03 321.13 C26.03 322.56 26.04 324 26.04 325.47 C26.04 328.49 26.03 331.5 25.99 334.51 C25.94 338.36 25.95 342.2 25.99 346.05 C26.02 349.74 25.99 353.44 25.96 357.13 C25.98 358.5 25.99 359.87 26 361.29 C25.79 371.92 25.79 371.92 21.68 376.73 C19.87 378.46 19.87 378.46 18 380 C17.33 380.57 16.67 381.14 15.98 381.73 C14.14 383.25 12.25 384.66 10.31 386.06 C9.99 386.31 9.99 386.31 8.34 387.57 C6.43 388.97 6.43 388.97 3 391 C-1 390 -1 390 -2 389 C-2.1 386.95 -2.13 384.89 -2.13 382.84 C-2.13 381.49 -2.14 380.14 -2.14 378.75 C-2.14 377.23 -2.14 375.72 -2.13 374.2 C-2.14 372.61 -2.14 371.01 -2.14 369.41 C-2.15 365.01 -2.15 360.6 -2.15 356.2 C-2.15 351.45 -2.15 346.71 -2.16 341.96 C-2.16 332.66 -2.17 323.36 -2.17 314.06 C-2.17 306.5 -2.17 298.95 -2.17 291.39 C-2.18 269.99 -2.19 248.59 -2.19 227.19 C-2.19 226.03 -2.19 224.88 -2.19 223.69 C-2.19 222.53 -2.19 221.38 -2.19 220.19 C-2.18 201.44 -2.19 182.69 -2.21 163.94 C-2.22 144.72 -2.23 125.49 -2.23 106.26 C-2.23 95.46 -2.23 84.66 -2.24 73.85 C-2.25 64.65 -2.25 55.46 -2.25 46.26 C-2.24 41.56 -2.24 36.87 -2.25 32.17 C-2.26 27.88 -2.26 23.58 -2.25 19.29 C-2.25 17.73 -2.25 16.17 -2.26 14.61 C-2.26 12.5 -2.26 10.4 -2.25 8.29 C-2.25 7.11 -2.25 5.94 -2.25 4.73 C-2 2 -2 2 0 0 Z " fill="#29ABE2" transform="translate(440,234)"/>
<path d="M0 0 C2.56 2.8 3.51 5.29 4.38 8.94 C7.04 18.25 16.12 23.02 23.5 28.69 C40.02 43.23 46.55 65.42 51.84 85.94 C58.55 111.83 67.8 136.81 91.81 151.5 C102.53 157.22 114.71 160.21 126.86 160.03 C128.14 160.02 129.42 160 130.74 159.99 C133.43 159.95 136.12 159.92 138.81 159.87 C140.08 159.86 141.36 159.85 142.67 159.84 C143.26 159.83 143.26 159.83 146.21 159.79 C149 160 149 160 151 162 C151.31 165.94 151.31 165.94 151 170 C147.24 173.76 144.15 173.78 139.12 174.38 C123.1 176.61 108.08 182.84 97 195 C92.05 201.68 89.09 209.12 86.12 216.81 C77.67 238.63 65.55 252.58 44.55 263.25 C38.55 266.56 36.12 271.16 33 277 C32 278 32 278 29.19 278.38 C26 278 26 278 23.94 275.91 C21.77 272.66 20.78 269.83 19.75 266.06 C19.41 264.88 19.08 263.69 18.73 262.47 C18.03 259.15 17.72 256.38 18 253 C19.81 250.38 19.81 250.38 23 249 C25.46 249.68 25.46 249.68 28.25 250.81 C33.48 252.93 37.56 254.01 43 252 C56.99 244.63 65.38 235.33 72 221 C72.73 217.07 72.73 217.07 73 214 C69.14 214.96 65.79 216.28 62.12 217.81 C38.83 227.22 17.17 228.04 -7 222 C-13.65 221.3 -17.69 222.98 -23.39 226.1 C-26 227 -26 227 -28.71 226.34 C-31 225 -31 225 -33 222 C-32.57 213.89 -30.84 203.84 -25 198 C-24.01 197.67 -23.02 197.34 -22 197 C-18.26 199.84 -15.51 202.27 -12.81 206.12 C-4.52 214.61 11.26 215.03 22.5 215.25 C46.95 214.72 66.42 205.03 84.47 189.22 C85.12 188.65 85.77 188.09 86.44 187.5 C87.08 186.94 87.73 186.37 88.39 185.79 C101.96 174 101.96 174 106 174 C105.67 172.68 105.34 171.36 105 170 C102.14 168.67 99.4 167.6 96.44 166.56 C86.86 163 78.05 158.47 69.14 153.48 C58.95 147.79 49.82 143.03 37.95 145.68 C25.56 149.19 15 154.97 8.38 166.31 C6.02 169.96 5.13 171.06 1 172 C-1.06 170.38 -1.06 170.38 -3 168 C-3.37 162.65 -0.32 159.27 2.94 155.36 C3.28 154.97 3.28 154.97 5 153 C5.64 152.24 6.28 151.48 6.94 150.7 C12.53 144.56 18.64 141.26 26.04 137.73 C26.52 137.44 26.52 137.44 29 136 C29 135.01 29 134.02 29 133 C12.44 129.29 -5.22 129.01 -20.56 137.19 C-24.23 140.19 -25.9 142.7 -27.89 146.91 C-29 149 -29 149 -32 152 C-35.53 152.09 -36.85 151.13 -39.5 148.81 C-43.61 143.45 -47.34 134.97 -46.76 128.19 C-46 126 -46 126 -44 124 C-40.84 123.72 -38.61 123.73 -35.69 125 C-27.93 127.89 -20.73 125.28 -13.2 122.87 C9.92 115.49 32.09 121.87 54 130 C53.39 126.6 52.54 123.52 51.29 120.3 C51.12 119.87 51.12 119.87 50.27 117.65 C50.09 117.19 50.09 117.19 49.19 114.88 C46.98 109.2 44.82 103.54 42.94 97.75 C39.95 89.49 33.96 83.17 27 78 C26.7 77.78 26.7 77.78 25.2 76.66 C14.36 69.27 3.89 68.59 -8.9 68.97 C-9.91 69 -10.93 69.03 -11.98 69.05 C-12.44 69.07 -12.44 69.07 -14.76 69.16 C-17 69 -17 69 -19 67 C-19.38 64.56 -19.38 64.56 -19 62 C-13.33 56.53 -5.36 57.61 1.98 57.72 C12.5 58.12 21.04 61.8 30 67 C31.32 67 32.64 67 34 67 C29.54 51.72 20.06 37.64 6.56 28.94 C0.54 25.66 -3.92 26.02 -10.65 26.26 C-14 26 -14 26 -16.44 24.87 C-18 23 -18 23 -18.55 20.3 C-17.82 15.9 -15.71 12.82 -13.19 9.25 C-12.74 8.58 -12.28 7.91 -11.82 7.21 C-8.54 2.43 -6.15 -0.92 0 0 Z " fill="#16294C" transform="translate(134,289)"/>
<path d="M0 0 C4.24 2.12 5.14 2.82 7 7 C7.37 12.28 6.49 16.08 4.62 21 C-3.86 45.31 0.34 68.53 11.04 91.43 C17.32 104.33 25.48 112.33 37.04 120.79 C50.74 131.03 59.25 142.72 63.65 159.47 C64.12 162.87 64.21 166.2 64.25 169.62 C64.26 170.28 64.26 170.28 64.33 173.6 C64 177 64 177 61 180 C57 179 57 179 55 177 C54.66 174.74 54.4 172.46 54.19 170.19 C52.78 158.78 48.99 149.12 42 140 C41.48 139.31 40.96 138.61 40.43 137.89 C38.87 135.94 38.87 135.94 36 133 C34.68 133 33.36 133 32 133 C32.07 133.32 32.07 133.32 32.44 134.93 C36.5 156.21 34.32 175.57 26.76 195.63 C25.02 201.07 25.91 204.91 28 210 C28.31 213.12 28.31 213.12 28 216 C25 219 25 219 21.62 219.12 C14.08 217.89 6.33 213.33 1 208 C0.56 205.56 0.56 205.56 1 203 C3.29 199.85 5.25 198.9 8.88 197.38 C15.43 194.2 17.76 188.24 20.26 181.71 C27.3 159.07 21.45 137.93 11.92 117.02 C11.08 115.18 10.29 113.31 9.5 111.45 C9.01 110.64 8.51 109.83 8 109 C6.68 109 5.36 109 4 109 C3.67 109.99 3.34 110.99 3 112.01 C-2.97 129.08 -12.03 142.25 -26.25 153.6 C-30.66 157.46 -31.6 162.24 -32.88 167.81 C-34 171 -34 171 -36.62 172.94 C-37.41 173.29 -38.19 173.64 -39 174 C-45.66 168.65 -54.15 161.72 -55.47 152.85 C-55 150 -55 150 -53.42 148.11 C-50.19 146.62 -47.85 146.92 -44.31 147.19 C-37.04 147.34 -33.34 145.8 -28 141 C-27.41 140.52 -26.82 140.03 -26.21 139.54 C-14.38 128.94 -6.86 112.33 -5.76 96.57 C-5.6 87.97 -6.59 80.66 -8.91 72.39 C-11.11 64.12 -11.92 55.48 -13 47 C-17.68 48.17 -18.72 49.51 -21.94 53 C-36.19 67.58 -54.68 75.95 -73.36 83.37 C-94.36 91.8 -109.39 104.18 -119.44 124.69 C-121.53 129.71 -121.97 134.46 -120 139.62 C-119.67 140.41 -119.34 141.19 -119 142 C-118.62 145.12 -118.62 145.12 -119 148 C-120.62 149.94 -120.62 149.94 -123 151 C-128.22 150.62 -132.11 148.64 -136.69 146.19 C-137.99 145.5 -139.29 144.81 -140.64 144.11 C-145.49 141.07 -145.49 141.07 -147 138 C-146 134 -146 134 -143 131 C-141.74 130.44 -140.48 129.89 -139.19 129.31 C-132.47 126.05 -129.53 120.1 -126.19 113.69 C-122.87 107.45 -118.69 102.27 -114 97 C-113.31 96.22 -112.62 95.43 -111.91 94.62 C-99.69 81.54 -82.66 74.33 -66.25 67.94 C-56.11 63.96 -46.29 59.15 -38 52 C-38 51.01 -38 50.02 -38 49 C-39.19 49.02 -40.37 49.05 -41.59 49.07 C-49.43 49.17 -57.04 49.15 -64.81 48 C-79.19 46 -94.48 45 -108 51 C-108.91 51.39 -109.83 51.78 -110.77 52.18 C-118.04 55.7 -123.37 60.77 -129.05 66.39 C-131.75 68.78 -133.54 70.12 -137 71 C-139.38 70 -139.38 70 -141 68 C-141.19 63.83 -140.01 62.01 -137.56 58.62 C-126.05 46.27 -109.28 36.64 -92.14 35.87 C-91.16 35.87 -90.19 35.87 -89.19 35.87 C-88.11 35.87 -87.04 35.86 -85.93 35.86 C-85.37 35.87 -85.37 35.87 -82.56 35.88 C-81.46 35.87 -80.35 35.87 -79.21 35.86 C-73.68 35.87 -68.47 36.19 -63 37 C-36.28 38.46 -36.28 38.46 -26 33 C-25.18 32.56 -24.36 32.13 -23.51 31.68 C-14.13 26.06 -9.87 17.22 -5.07 7.82 C-2.19 2.19 -2.19 2.19 0 0 Z " fill="#16294C" transform="translate(308,538)"/>
<path d="M0 0 C2 3 2 3 1.75 5.88 C1 9 1 9 -0.12 11.31 C-2.49 18.57 0.97 26.47 3.44 33.31 C12.26 58.98 10.61 83.91 -1.21 108.51 C-5.67 117.48 -10.45 126.22 -15.69 134.75 C-29.23 156.96 -36.75 180.19 -31.05 206.22 C-28.85 214.14 -25.74 221.66 -21.06 228.44 C-19 232 -19 232 -18.94 235.75 C-20.1 239.29 -20.9 240.93 -24 243 C-26.37 243.02 -26.37 243.02 -29 242 C-37.21 231.21 -41.47 217.62 -46 205 C-53.1 185.52 -60.96 172.51 -80 163 C-87.35 160.17 -94.87 158.13 -102.74 157.61 C-122.54 156.14 -140.3 153.22 -155.75 139.73 C-159.89 136.55 -163.42 135.82 -168.56 135.69 C-173.65 135.33 -173.65 135.33 -176.69 132.44 C-177.12 131.63 -177.55 130.83 -178 130 C-175.81 124.96 -173 121.57 -169.12 117.69 C-168.1 116.64 -167.07 115.59 -166.01 114.51 C-161.61 110.84 -161.61 110.84 -158 111 C-155.1 113.02 -154.15 114.36 -153.35 117.8 C-153.3 118.31 -153.3 118.31 -153.06 120.88 C-152.08 127.6 -150.13 130.61 -144.68 134.77 C-135.71 140.97 -125.84 144.15 -115 145 C-115.27 140.49 -117.32 138.39 -120.25 135.12 C-127.19 126.69 -130.38 117.45 -133 107 C-134.61 100.66 -136.94 96.52 -141.41 91.8 C-143.26 89.7 -144.24 87.69 -145 85 C-140.09 79.75 -135.5 79.62 -128.56 79.12 C-127.7 79.04 -126.84 78.95 -125.96 78.87 C-123.44 78.7 -123.44 78.7 -119 79 C-116.4 81.49 -116.4 81.49 -115 84 C-116.59 87.25 -118.19 90.29 -120.19 93.31 C-123.4 99.84 -122.44 105.16 -120.44 111.88 C-113.85 130.01 -99.93 141.44 -82.85 149.47 C-81.03 150.32 -79.2 151.16 -77.38 152 C-67.5 156.55 -58.44 161.52 -51.5 170.12 C-50.68 171.07 -49.85 172.02 -49 173 C-47.68 172.67 -46.36 172.34 -45 172 C-44 170.17 -44 170.17 -43.29 167.77 C-43.02 166.89 -42.74 166.01 -42.46 165.11 C-42.19 164.16 -41.91 163.22 -41.62 162.25 C-39.69 156.03 -37.75 150.08 -34.81 144.25 C-27.27 128.47 -24.68 107.79 -29.91 90.82 C-34.35 79.35 -40.07 67.92 -50.86 61.23 C-55.51 59.41 -59.92 59.58 -64.86 59.5 C-68 59 -68 59 -70.05 57.34 C-71 55 -71 55 -70.48 52.17 C-68.76 48.49 -66.71 45.48 -64.25 42.25 C-63.41 41.12 -62.57 39.99 -61.7 38.83 C-58.8 35.79 -57.17 34.51 -53 34 C-50.24 35.87 -49.22 37.26 -48.27 40.45 C-48.12 41.33 -47.97 42.21 -47.81 43.12 C-46.1 50.11 -41.99 54.04 -37 59 C-24.45 71.84 -17.07 87.02 -16 105 C-12 104 -12 104 -10.66 101.77 C-6.5 91.15 -2.68 80.46 -2 69 C-1.92 67.68 -1.84 66.36 -1.75 65 C-1.97 50.97 -5.11 32.33 -15 22 C-17.64 20.14 -17.64 20.14 -20.25 18.69 C-24.98 16.02 -24.98 16.02 -26 15 C-26.62 12.31 -26.62 12.31 -26 9 C-20.09 3.2 -8.24 -3.17 0 0 Z " fill="#16294C" transform="translate(351,63)"/>
<path d="M0 0 C4.64 2.81 7.1 5.17 8.81 10.31 C9.54 17.12 8.9 21.61 4.81 27.31 C3.79 28.2 2.76 29.09 1.71 30.01 C-3.19 35.74 -1.98 43.4 -1.9 50.53 C-1.9 52.18 -1.9 53.84 -1.91 55.49 C-1.92 59.05 -1.91 62.61 -1.88 66.17 C-1.85 71.79 -1.85 77.42 -1.86 83.05 C-1.88 93.97 -1.85 104.9 -1.82 115.83 C-1.78 129.74 -1.77 143.65 -1.79 157.57 C-1.79 163.16 -1.78 168.75 -1.75 174.34 C-1.73 177.82 -1.73 181.3 -1.74 184.78 C-1.74 186.39 -1.73 188 -1.71 189.62 C-1.69 191.82 -1.7 194.02 -1.71 196.22 C-1.7 197.45 -1.7 198.69 -1.7 199.95 C-2.99 208.77 -11.65 215.17 -17.62 221.19 C-18.67 222.27 -19.72 223.35 -20.77 224.43 C-21.27 224.94 -21.27 224.94 -23.81 227.49 C-24.72 228.42 -25.63 229.34 -26.57 230.3 C-29.19 232.31 -29.19 232.31 -31.91 232.72 C-34.19 232.31 -34.19 232.31 -36.06 230.62 C-37.53 227.62 -37.2 226.48 -36.19 223.31 C-34.27 220.97 -34.27 220.97 -31.79 218.59 C-30.9 217.72 -30 216.85 -29.09 215.96 C-28.15 215.07 -27.21 214.17 -26.25 213.25 C-24.4 211.47 -22.56 209.69 -20.72 207.9 C-20.31 207.51 -20.31 207.51 -18.23 205.52 C-14.24 201.2 -13.87 197.6 -13.81 191.94 C-13.78 190.65 -13.76 189.36 -13.73 188.04 C-14.66 180.48 -20.51 175.74 -25.73 170.65 C-26.09 170.29 -26.09 170.29 -27.91 168.48 C-30.21 166.21 -32.51 163.95 -34.81 161.69 C-37.85 158.7 -40.89 155.71 -43.91 152.71 C-44.61 152.03 -45.31 151.35 -46.03 150.64 C-46.36 150.32 -46.36 150.32 -47.99 148.7 C-48.56 148.14 -49.13 147.58 -49.72 147.01 C-52.78 143.48 -53.43 140.55 -53.36 136.08 C-53.35 135.03 -53.35 133.99 -53.34 132.91 C-53.32 131.78 -53.3 130.66 -53.29 129.5 C-53.28 127.1 -53.28 124.7 -53.28 122.3 C-53.27 118.53 -53.25 114.76 -53.19 110.99 C-52.86 87.29 -52.86 87.29 -58.62 80.47 C-59.42 79.77 -60.23 79.07 -61.06 78.34 C-63.7 75.83 -64.36 73.83 -65.19 70.31 C-65 64.44 -63.91 60.86 -60.19 56.31 C-56.3 52.81 -53.77 51.45 -48.5 51 C-42.29 51.45 -38.14 53.26 -33.75 57.88 C-30.61 62.77 -30.58 67.66 -31.19 73.31 C-33.04 77.58 -34.65 79.88 -38.29 82.79 C-41.9 86.37 -41.91 89.7 -41.97 94.61 C-41.95 95.68 -41.93 96.75 -41.91 97.84 C-41.92 98.95 -41.92 100.06 -41.92 101.21 C-41.91 103.55 -41.89 105.89 -41.86 108.23 C-41.81 111.8 -41.82 115.37 -41.83 118.95 C-41.82 121.23 -41.81 123.5 -41.79 125.78 C-41.79 126.85 -41.79 127.91 -41.79 129.01 C-41.58 140.3 -35.33 145.54 -27.69 153.19 C-26.83 154.07 -25.98 154.95 -25.1 155.85 C-24.27 156.68 -23.45 157.51 -22.59 158.37 C-21.84 159.12 -21.09 159.88 -20.32 160.66 C-18.19 162.31 -18.19 162.31 -14.19 162.31 C-14.02 145.61 -13.9 128.92 -13.82 112.22 C-13.79 104.46 -13.74 96.71 -13.66 88.96 C-13.58 81.47 -13.54 73.99 -13.52 66.51 C-13.51 63.65 -13.49 60.8 -13.45 57.94 C-13.4 53.94 -13.39 49.95 -13.39 45.95 C-13.37 44.77 -13.34 43.59 -13.32 42.37 C-13.37 36.75 -13.53 33.28 -17.62 29.2 C-18.8 28.23 -19.99 27.27 -21.19 26.31 C-24.67 21.25 -25.03 16.28 -24.19 10.31 C-21.9 4.86 -19.34 2.16 -14.19 -0.69 C-9.08 -2.39 -4.87 -2.25 0 0 Z " fill="#32AEE3" transform="translate(554.1875,58.6875)"/>
<path d="M0 0 C0.86 -0 1.73 -0.01 2.62 -0.01 C4.44 -0.01 6.27 -0.01 8.09 0.01 C10.87 0.03 13.64 0.01 16.42 -0.02 C18.2 -0.01 19.97 -0.01 21.75 0 C22.57 -0.01 23.4 -0.02 24.24 -0.02 C33.62 0.13 39.05 5.13 45.29 11.44 C45.98 12.13 46.67 12.81 47.38 13.52 C49.65 15.78 51.9 18.04 54.15 20.31 C55.73 21.89 57.31 23.47 58.88 25.04 C62.18 28.34 65.47 31.64 68.76 34.95 C72.98 39.19 77.2 43.41 81.43 47.64 C84.69 50.89 87.94 54.15 91.19 57.4 C92.74 58.96 94.3 60.52 95.86 62.08 C98.04 64.26 100.21 66.44 102.37 68.62 C103.02 69.27 103.67 69.91 104.33 70.57 C109.07 75.37 111.23 78.63 111.24 85.46 C111.23 86.25 111.22 87.03 111.22 87.84 C111.21 88.26 111.21 88.26 111.21 90.38 C111.21 92.19 111.2 94.01 111.19 95.82 C111.18 98.7 111.18 101.57 111.18 104.45 C111.2 112.63 111.21 120.8 111.16 128.98 C111.13 133.98 111.14 138.98 111.17 143.99 C111.17 145.89 111.17 147.79 111.14 149.7 C110.96 166.46 110.96 166.46 115.37 171.51 C116.57 172.53 117.78 173.54 119.01 174.53 C122.76 179.05 123.49 182.67 123.01 188.53 C120.66 194.48 118.34 197.78 113.01 201.53 C107.37 203.41 102.65 203.22 97.26 200.97 C92.74 197.58 89.82 193.98 88.01 188.53 C87.43 182.57 88.65 179.44 92.01 174.53 C92.58 174.06 93.16 173.58 93.75 173.09 C97.4 169.93 98.85 167.46 99.65 162.65 C99.98 157.7 99.9 152.76 99.83 147.8 C99.83 145.97 99.83 144.13 99.83 142.3 C99.83 138.46 99.8 134.63 99.76 130.8 C99.7 125.89 99.69 120.98 99.7 116.08 C99.7 112.29 99.68 108.51 99.66 104.72 C99.65 102.91 99.64 101.1 99.64 99.29 C99.64 96.76 99.61 94.23 99.57 91.7 C99.56 90.27 99.55 88.83 99.54 87.35 C98.3 78.43 90.34 72.49 84.24 66.4 C82.5 64.65 80.78 62.89 79.05 61.12 C77.94 60.01 76.84 58.9 75.73 57.79 C75.23 57.28 75.23 57.28 72.69 54.73 C70.01 52.53 70.01 52.53 66.01 52.53 C65.88 60.27 65.79 68.01 65.73 75.76 C65.71 78.39 65.67 81.02 65.63 83.66 C65.57 87.44 65.54 91.23 65.52 95.01 C65.49 96.19 65.47 97.37 65.44 98.58 C65.44 106.79 65.44 106.79 68.37 110.62 C69.24 111.25 70.11 111.88 71.01 112.53 C75.7 117.86 77.38 120.95 77.29 128.18 C76.7 133.14 74.1 136.5 70.57 139.84 C65.69 143.06 62.34 144.05 56.36 143.2 C50.96 141.66 47.2 138.21 44.01 133.72 C42.17 127.84 42.15 123.44 44.63 117.91 C47.01 114.53 47.01 114.53 50.1 111.46 C53.9 107.04 53.88 103.02 53.85 97.38 C53.86 96.4 53.88 95.42 53.9 94.41 C53.94 91.28 53.94 88.16 53.95 85.03 C53.97 82.99 54 80.96 54.03 78.92 C54.11 72.79 54.08 66.66 54.01 60.53 C54 59.47 53.98 58.4 53.97 57.31 C53.93 54.16 53.85 51.02 53.76 47.88 C53.75 46.92 53.73 45.97 53.72 44.99 C53.43 37.09 50.59 32.86 45.04 27.3 C44.3 26.56 43.57 25.82 42.81 25.06 C42.05 24.31 41.29 23.56 40.51 22.78 C39.75 22.01 38.99 21.25 38.21 20.46 C37.47 19.72 36.73 18.99 35.98 18.23 C35.31 17.57 34.64 16.91 33.96 16.22 C29.27 12.16 24.79 12.22 18.94 12.19 C18.06 12.17 17.18 12.16 16.28 12.14 C12.53 12.08 8.78 12.04 5.03 12 C2.29 11.97 -0.45 11.92 -3.19 11.88 C-3.61 11.87 -3.61 11.87 -5.77 11.86 C-11.77 11.76 -11.77 11.76 -13.99 9.53 C-14.43 7.16 -14.43 7.16 -13.99 4.53 C-9.86 0.05 -5.78 -0.06 0 0 Z " fill="#33AFE3" transform="translate(573.9921875,506.46875)"/>
<path d="M0 0 C3.56 0.62 4.88 2.12 7.41 4.69 C8.28 5.57 9.16 6.46 10.06 7.37 C10.97 8.3 11.87 9.24 12.8 10.2 C13.71 11.12 14.63 12.04 15.57 12.99 C24.87 22.46 24.87 22.46 24.84 30.5 C24.84 31.74 24.85 32.98 24.85 34.25 C24.84 35.61 24.83 36.97 24.82 38.37 C24.82 40.56 24.82 42.76 24.81 44.96 C24.81 47.32 24.8 49.68 24.79 52.04 C24.78 56.97 24.78 61.89 24.79 66.82 C24.81 80.82 24.81 94.83 24.77 108.84 C24.74 116.57 24.74 124.31 24.77 132.05 C24.78 136.14 24.78 140.23 24.75 144.32 C24.71 148.89 24.73 153.45 24.76 158.02 C24.75 158.7 24.75 158.7 24.7 162.11 C24.77 168.22 24.87 172.4 29.01 177.11 C29.62 177.67 30.24 178.24 30.87 178.82 C34.32 182.04 36.48 185.98 36.73 190.78 C36.22 197.37 34.38 200.83 29.61 205.2 C24.54 209.01 19.76 209.1 13.61 208.45 C8.85 206.61 7.03 205.07 4.17 200.83 C2.13 196.08 1.79 191.53 2.61 186.45 C4.81 181.49 7.64 178.11 11.61 174.45 C13.69 172.37 12.73 168.93 12.74 166.16 C12.73 165.1 12.73 164.05 12.73 162.97 C12.73 161.86 12.73 160.76 12.73 159.63 C12.73 155.96 12.72 152.3 12.71 148.64 C12.71 146.1 12.71 143.57 12.71 141.04 C12.7 134.36 12.69 127.68 12.68 121 C12.67 114.19 12.67 107.38 12.66 100.57 C12.65 87.2 12.63 73.83 12.61 60.45 C7.5 61.22 5.03 63.48 1.51 67.1 C0.94 67.66 0.38 68.23 -0.21 68.81 C-1.4 70.01 -2.58 71.21 -3.76 72.42 C-5.57 74.26 -7.39 76.08 -9.21 77.91 C-10.37 79.07 -11.53 80.24 -12.68 81.41 C-13.22 81.95 -13.77 82.5 -14.33 83.06 C-20.73 89.63 -21.43 95.61 -21.51 104.45 C-21.48 107.12 -21.43 109.79 -21.39 112.45 C-21.39 112.91 -21.39 112.91 -21.4 115.23 C-21.41 118.28 -21.37 121.34 -21.33 124.39 C-21.34 125.37 -21.35 126.36 -21.36 127.37 C-21.23 132.65 -20.79 135.67 -16.95 139.47 C-16.64 139.73 -16.64 139.73 -15.08 141.04 C-11.86 143.74 -10.62 146.69 -10.08 150.8 C-9.79 156.76 -10.76 160.55 -14.39 165.45 C-19.11 169.83 -22.64 170.76 -29.11 170.67 C-34.9 170.12 -38.77 166.77 -42.39 162.45 C-44.89 157.44 -44.71 152.79 -43.39 147.45 C-41.41 143.78 -39.29 141.36 -36.28 138.46 C-32.32 133.82 -32.6 129.36 -32.72 123.48 C-32.72 122.96 -32.72 122.96 -32.71 120.32 C-32.7 117.01 -32.73 113.7 -32.76 110.39 C-32.79 107.07 -32.8 103.76 -32.79 100.44 C-32.79 98.39 -32.8 96.33 -32.84 94.27 C-32.84 85.84 -30.07 82.12 -24.28 76.15 C-22.62 74.5 -20.95 72.86 -19.28 71.22 C-18.4 70.35 -17.52 69.48 -16.62 68.58 C-13.82 65.8 -11.01 63.03 -8.2 60.26 C-4.49 56.61 -0.79 52.95 2.91 49.28 C3.76 48.44 4.62 47.6 5.5 46.74 C6.29 45.96 7.08 45.17 7.89 44.37 C8.59 43.68 9.28 43 10 42.29 C12.99 38.88 12.82 35.28 13.04 30.9 C11.81 23.83 5.17 18.92 0.13 14.31 C-2.56 11.74 -4.28 9.79 -5.47 6.23 C-5.36 2.35 -3.83 0.73 0 0 Z " fill="#33AFE3" transform="translate(527.387939453125,570.5478515625)"/>
<path d="M0 0 C4.26 3.17 6.52 6.36 8.19 11.38 C8.76 18.1 7.72 21.79 4.19 27.38 C-1.4 31.82 -5.7 32.9 -12.81 32.38 C-17.21 30.41 -20.28 27.94 -23.69 24.62 C-26.66 21.92 -28.52 20.89 -32.56 20.81 C-36.81 21.38 -36.81 21.38 -40.81 23.38 C-42.68 27.12 -43.06 28.23 -43.04 32.14 C-43.04 33.08 -43.04 34.02 -43.04 34.99 C-43.03 36 -43.02 37.01 -43.01 38.05 C-43.01 38.57 -43.01 38.57 -43 41.19 C-42.99 44.5 -42.96 47.81 -42.94 51.12 C-42.93 53.37 -42.92 55.62 -42.91 57.86 C-42.89 63.37 -42.85 68.87 -42.81 74.38 C-37.49 73.61 -35.75 71.53 -32.25 67.44 C-29.08 63.75 -27.19 61.57 -22.81 59.38 C-19.98 59.2 -17.2 59.09 -14.38 59.06 C-6.53 58.97 -6.53 58.97 -2.97 56 C-2.26 55.14 -1.55 54.27 -0.81 53.38 C4.52 48.69 7.6 46.99 14.84 47.1 C18.68 47.55 21.12 49.09 24.19 51.38 C28.59 57.05 29.71 61.21 29.19 68.38 C27.45 73.59 24.85 77.38 20.19 80.38 C14.64 82.23 9.91 82.13 4.62 79.81 C1.85 77.85 -0.19 76 -2.56 73.62 C-6.54 70.06 -9.67 69.56 -14.91 69.45 C-23.52 72.2 -30.64 82.1 -36.91 88.42 C-38.74 90.27 -40.57 92.12 -42.41 93.96 C-47.62 99.2 -52.82 104.44 -58.02 109.68 C-61.22 112.9 -64.42 116.12 -67.62 119.34 C-68.84 120.56 -70.05 121.78 -71.26 123.01 C-72.95 124.72 -74.65 126.42 -76.34 128.12 C-77.31 129.09 -78.27 130.06 -79.26 131.06 C-83.65 135.04 -86.91 135.63 -92.64 135.65 C-94.04 135.66 -95.43 135.67 -96.86 135.68 C-98.38 135.68 -99.89 135.68 -101.41 135.68 C-102.97 135.68 -104.52 135.68 -106.08 135.69 C-109.34 135.7 -112.6 135.7 -115.86 135.69 C-120.04 135.68 -124.21 135.7 -128.39 135.73 C-131.61 135.74 -134.82 135.74 -138.03 135.74 C-139.57 135.74 -141.11 135.74 -142.65 135.75 C-144.81 135.77 -146.96 135.76 -149.11 135.75 C-150.33 135.75 -151.56 135.75 -152.82 135.75 C-155.81 135.38 -155.81 135.38 -158.81 132.38 C-158.62 129.25 -158.62 129.25 -157.81 126.38 C-155.05 124.99 -152.81 125.24 -149.71 125.23 C-148.43 125.23 -147.15 125.22 -145.83 125.21 C-144.44 125.21 -143.04 125.2 -141.61 125.2 C-138.68 125.18 -135.75 125.15 -132.82 125.13 C-128.19 125.09 -123.56 125.06 -118.93 125.05 C-114.47 125.04 -110.01 124.99 -105.55 124.95 C-104.85 124.95 -104.85 124.95 -101.35 124.96 C-100.06 124.94 -98.76 124.92 -97.43 124.91 C-96.29 124.9 -95.16 124.89 -93.99 124.89 C-87.35 123.82 -82.96 118.82 -78.39 114.22 C-77.8 113.63 -77.22 113.05 -76.61 112.45 C-75.39 111.22 -74.16 109.99 -72.93 108.76 C-71.06 106.87 -69.18 105 -67.29 103.13 C-66.1 101.93 -64.9 100.73 -63.7 99.53 C-63.14 98.97 -62.58 98.42 -62 97.84 C-57.43 93.22 -55.57 89.87 -55.54 83.37 C-55.53 82.16 -55.52 80.95 -55.51 79.7 C-55.51 78.39 -55.51 77.09 -55.5 75.74 C-55.48 72.97 -55.45 70.2 -55.43 67.42 C-55.4 63.06 -55.38 58.69 -55.36 54.32 C-55.33 50.11 -55.3 45.89 -55.25 41.68 C-55.25 40.38 -55.25 39.08 -55.25 37.74 C-55.16 29.45 -54.52 22.67 -50 15.5 C-45.42 11.05 -41.55 10.26 -35.31 9.94 C-29.95 9.62 -26.95 9.02 -22.81 5.38 C-15.49 -0.98 -9.47 -4.04 0 0 Z " fill="#34AFE3" transform="translate(726.8125,265.625)"/>
<path d="M0 0 C4.41 3.08 6.62 6.24 8.31 11.31 C8.93 17.6 7.51 21.04 4.31 26.31 C-1.41 31.76 -6.37 31.43 -13.95 31.45 C-19.25 32.68 -21.89 35.54 -25.69 39.31 C-26.48 40.07 -27.27 40.82 -28.08 41.6 C-30.62 44.04 -33.13 46.52 -35.62 49 C-36.49 49.84 -37.35 50.68 -38.24 51.55 C-39.05 52.36 -39.87 53.17 -40.71 54.01 C-41.45 54.74 -42.19 55.47 -42.96 56.23 C-44.69 58.31 -44.69 58.31 -45.69 62.31 C-43.1 67.04 -39.61 70.65 -35.81 74.44 C-34.8 75.45 -33.8 76.46 -32.76 77.51 C-27.52 82.3 -23.98 84.82 -16.75 84.84 C-16.1 84.85 -16.1 84.85 -12.79 84.86 C-11.44 84.84 -10.08 84.83 -8.69 84.81 C-7.33 84.83 -5.98 84.84 -4.59 84.86 C-3.28 84.85 -1.97 84.85 -0.62 84.84 C0.56 84.84 1.75 84.83 2.97 84.83 C8.8 83.93 12.61 80.29 16.62 76.19 C17.3 75.5 17.98 74.82 18.68 74.12 C21.63 70.86 21.45 68.43 21.62 64.12 C22.13 57.15 23.65 52.78 28.88 47.94 C33.44 44.89 37.98 44.83 43.31 45.31 C48.99 47.2 51.76 50.69 55.31 55.31 C57.1 60.66 56.94 64.92 54.62 70.06 C51.69 74.19 49.14 76.7 44.31 78.31 C42.08 78.36 39.85 78.4 37.62 78.44 C30.24 78.93 27.1 80.89 22.31 86.31 C20.9 87.76 19.49 89.2 18.06 90.62 C17.44 91.28 16.81 91.94 16.17 92.61 C11.82 96.59 7.58 96.63 2.04 96.65 C1.24 96.66 0.44 96.66 -0.39 96.67 C-2.08 96.68 -3.77 96.68 -5.47 96.68 C-8.05 96.69 -10.62 96.72 -13.2 96.76 C-14.85 96.77 -16.5 96.77 -18.15 96.77 C-18.91 96.79 -19.68 96.8 -20.47 96.82 C-28.49 96.75 -32.75 92.46 -38.38 87.25 C-39.41 86.29 -40.45 85.33 -41.52 84.34 C-45.48 80.55 -49.27 76.62 -53.02 72.62 C-58.52 67.86 -63.83 66.94 -70.96 66.93 C-71.76 66.92 -72.55 66.92 -73.37 66.91 C-75.09 66.9 -76.81 66.9 -78.52 66.9 C-81.24 66.91 -83.95 66.89 -86.67 66.87 C-93.4 66.83 -100.14 66.82 -106.88 66.81 C-112.58 66.8 -118.29 66.77 -124 66.73 C-126.67 66.72 -129.35 66.72 -132.02 66.73 C-133.66 66.72 -135.3 66.71 -136.93 66.7 C-138.36 66.7 -139.79 66.69 -141.26 66.69 C-144.69 66.31 -144.69 66.31 -147.69 63.31 C-147.44 59.97 -147.08 58.71 -144.69 56.31 C-142.01 56.12 -139.43 56.04 -136.75 56.06 C-135.93 56.05 -135.11 56.05 -134.27 56.05 C-132.49 56.04 -130.7 56.04 -128.92 56.04 C-126.09 56.04 -123.27 56.03 -120.44 56.01 C-112.41 55.96 -104.38 55.94 -96.35 55.93 C-91.44 55.93 -86.53 55.9 -81.61 55.87 C-79.74 55.86 -77.87 55.85 -76 55.86 C-73.38 55.87 -70.76 55.85 -68.14 55.83 C-67.37 55.83 -66.6 55.84 -65.81 55.85 C-57.96 55.73 -53.78 51.66 -48.46 46.36 C-47.51 45.41 -46.56 44.46 -45.58 43.48 C-44.61 42.5 -43.63 41.51 -42.62 40.5 C-41.64 39.53 -40.66 38.55 -39.65 37.55 C-27.25 25.12 -27.25 25.12 -26.12 19.5 C-26.12 18.64 -26.12 17.77 -26.12 16.88 C-25.79 10.27 -24.11 5.73 -19.31 0.94 C-12.47 -3.3 -7.31 -3.35 0 0 Z " fill="#35AFE3" transform="translate(719.6875,363.6875)"/>
<path d="M0 0 C4.71 2.85 6.86 5.23 9.12 10.19 C10.27 15.41 9.43 19.03 7.12 23.81 C4.81 27.31 4.81 27.31 1.71 30.09 C-3.01 35.53 -1.92 42.57 -1.81 49.38 C-1.79 52.05 -1.78 54.73 -1.79 57.41 C-1.78 58 -1.78 58 -1.74 60.99 C-2.55 66.96 -6.57 70.94 -10.74 75.06 C-11.63 75.95 -12.53 76.84 -13.45 77.75 C-14.41 78.69 -15.37 79.63 -16.35 80.6 C-17.34 81.58 -18.33 82.56 -19.35 83.57 C-22.5 86.7 -25.65 89.82 -28.81 92.94 C-32.98 97.05 -37.14 101.17 -41.29 105.29 C-42.25 106.23 -43.21 107.18 -44.2 108.15 C-45.09 109.03 -45.98 109.91 -46.89 110.82 C-47.68 111.6 -48.46 112.37 -49.27 113.16 C-53.22 117.58 -53.42 121.04 -53.35 126.72 C-53.35 127.09 -53.35 127.09 -53.33 128.97 C-53.32 130.57 -53.3 132.18 -53.28 133.78 C-53.24 136.33 -53.22 138.87 -53.2 141.41 C-53.16 148.64 -53.08 155.88 -53 163.11 C-52.94 167.53 -52.91 171.96 -52.89 176.39 C-52.87 178.07 -52.85 179.75 -52.83 181.43 C-52.79 183.79 -52.77 186.15 -52.77 188.51 C-52.76 189.18 -52.76 189.18 -52.72 192.57 C-53.51 198.88 -56.75 203.25 -61.16 207.66 C-61.93 208.43 -62.69 209.2 -63.48 210 C-63.89 210.41 -63.89 210.41 -65.97 212.46 C-66.82 213.31 -67.67 214.16 -68.55 215.04 C-70.34 216.83 -72.13 218.61 -73.93 220.39 C-76.69 223.12 -79.43 225.87 -82.17 228.62 C-83.91 230.35 -85.66 232.09 -87.41 233.83 C-88.23 234.65 -89.05 235.47 -89.89 236.32 C-90.27 236.7 -90.27 236.7 -92.22 238.62 C-92.89 239.28 -93.56 239.95 -94.25 240.64 C-98.84 244.61 -102.86 244.74 -108.61 244.63 C-111.19 244.31 -111.19 244.31 -113.94 242.62 C-115.19 240.31 -115.19 240.31 -115.06 237.69 C-114.19 235.31 -114.19 235.31 -112.19 233.31 C-110.65 233.03 -109.11 232.81 -107.56 232.62 C-99.95 231.21 -95.95 226.37 -91.09 220.71 C-85.78 214.6 -79.92 209.03 -74.13 203.38 C-73.7 202.96 -73.7 202.96 -71.51 200.8 C-70.73 200.03 -69.95 199.26 -69.14 198.48 C-65.15 194.05 -64.94 190.51 -64.93 184.79 C-64.93 184.04 -64.92 183.29 -64.92 182.52 C-64.91 180.89 -64.91 179.26 -64.91 177.63 C-64.91 175.05 -64.9 172.47 -64.88 169.88 C-64.84 162.55 -64.81 155.21 -64.81 147.87 C-64.8 143.38 -64.78 138.89 -64.74 134.4 C-64.73 132.69 -64.73 130.98 -64.73 129.27 C-64.74 126.88 -64.72 124.48 -64.7 122.09 C-64.7 120.73 -64.7 119.37 -64.69 117.97 C-63.83 111.71 -60.1 107.97 -55.73 103.66 C-55.29 103.22 -55.29 103.22 -53.08 101.03 C-52.14 100.11 -51.21 99.19 -50.24 98.24 C-49.28 97.28 -48.31 96.32 -47.31 95.34 C-44.24 92.28 -41.15 89.23 -38.06 86.19 C-33.99 82.17 -29.93 78.15 -25.87 74.12 C-24.93 73.19 -23.99 72.27 -23.02 71.32 C-22.15 70.46 -21.28 69.6 -20.39 68.71 C-19.62 67.96 -18.86 67.2 -18.07 66.42 C-12.92 60.65 -13.71 54.28 -13.62 47 C-13.58 45.79 -13.53 44.58 -13.47 43.33 C-13.37 34.54 -13.37 34.54 -15.72 31 C-17.46 29.28 -19.26 27.82 -21.19 26.31 C-24.4 21.54 -25.04 16.95 -24.19 11.31 C-22.39 5.56 -19.53 2.15 -14.19 -0.69 C-9.08 -2.39 -4.87 -2.25 0 0 Z " fill="#30ADE2" transform="translate(674.1875,127.6875)"/>
<path d="M0 0 C1.3 -0.01 2.6 -0.03 3.94 -0.04 C5.35 -0.04 6.76 -0.03 8.22 -0.03 C8.94 -0.03 8.94 -0.03 12.6 -0.05 C15.66 -0.05 18.73 -0.05 21.79 -0.04 C25.71 -0.03 29.63 -0.05 33.54 -0.08 C37.29 -0.1 41.03 -0.1 44.78 -0.09 C45.48 -0.1 45.48 -0.1 49.03 -0.13 C49.69 -0.12 49.69 -0.12 53 -0.1 C53.58 -0.1 53.58 -0.1 56.49 -0.1 C62.84 0.9 66.89 5.36 71.24 9.79 C72.25 10.81 73.26 11.83 74.3 12.88 C75.34 13.94 76.38 15 77.45 16.09 C79.52 18.2 81.6 20.31 83.68 22.42 C84.6 23.35 85.51 24.28 86.45 25.24 C94.77 33.26 116.69 29.55 127.53 29.53 C131.08 29.53 134.64 29.53 138.19 29.54 C140.47 29.54 142.75 29.54 145.03 29.54 C146.08 29.54 147.14 29.54 148.22 29.54 C163.19 29.5 163.19 29.5 166.8 26.88 C167.3 26.27 167.8 25.66 168.32 25.03 C172.57 20.37 175.73 18.6 182.13 17.97 C186.83 18.14 189.87 19.63 193.7 22.4 C198.26 27.33 199.07 31.29 198.97 37.83 C198.54 41.89 197.23 44.24 194.7 47.4 C189.85 50.42 185.44 52.4 179.7 52.4 C174.73 50.51 171.99 48.74 168.52 44.8 C162.33 39.34 154.26 40.51 146.5 40.64 C144.82 40.64 143.14 40.64 141.47 40.63 C137.07 40.62 132.67 40.65 128.27 40.69 C121.22 40.75 114.17 40.77 107.12 40.76 C104.67 40.77 102.21 40.8 99.76 40.83 C98.25 40.83 96.74 40.84 95.23 40.84 C94.57 40.84 94.57 40.84 91.25 40.88 C84.76 40.01 80.86 35.81 76.44 31.27 C75.48 30.3 74.53 29.33 73.54 28.33 C72.56 27.32 71.58 26.32 70.57 25.28 C68.61 23.27 66.65 21.27 64.69 19.27 C63.83 18.39 62.96 17.5 62.07 16.59 C58.03 12.87 54.9 12.15 49.6 12.13 C48.37 12.12 47.14 12.11 45.87 12.1 C44.54 12.1 43.21 12.1 41.85 12.1 C39.05 12.07 36.25 12.04 33.45 12.02 C29.03 11.99 24.61 11.97 20.19 11.95 C15.93 11.93 11.67 11.89 7.41 11.85 C6.08 11.85 4.75 11.85 3.39 11.85 C2.16 11.83 0.93 11.82 -0.34 11.8 C-1.42 11.8 -2.5 11.79 -3.62 11.79 C-6.3 11.4 -6.3 11.4 -9.3 8.4 C-9.68 5.9 -9.68 5.9 -9.3 3.4 C-5.71 -0.19 -4.91 0.02 0 0 Z " fill="#32AEE3" transform="translate(582.303955078125,448.595947265625)"/>
<path d="M0 0 C0.42 0 0.42 0 2.52 0 C4.28 0 6.04 0.01 7.81 0.02 C10.46 0.04 13.12 0.05 15.77 0.04 C44.11 0.1 44.11 0.1 49.63 5.23 C50.7 6.45 51.75 7.68 52.8 8.91 C56.49 13.15 60.45 16.99 64.57 20.79 C65.23 21.41 65.9 22.03 66.58 22.67 C81.26 36.33 81.26 36.33 87.87 36.46 C88.97 36.48 90.06 36.5 91.19 36.52 C96.22 36.59 101.24 36.65 106.27 36.69 C108.92 36.72 111.57 36.76 114.21 36.81 C118.03 36.89 121.85 36.93 125.67 36.95 C126.85 36.98 128.03 37.02 129.24 37.05 C135.1 37.04 138.76 36.76 143.26 32.81 C144.39 31.62 145.51 30.43 146.63 29.23 C151.4 26.15 154.98 25.62 160.63 26.23 C165.99 28.59 169.21 31.5 172.63 36.23 C174.4 41.53 174.26 45.8 172.01 50.92 C168.88 55.28 165.78 58.51 160.63 60.23 C154.27 60.76 150.86 59.87 145.63 56.23 C145.1 55.66 144.57 55.08 144.02 54.49 C140.06 50.28 137.11 48.75 131.31 48.41 C128.85 48.39 126.4 48.42 123.94 48.47 C122.63 48.47 121.33 48.46 119.98 48.46 C115.82 48.45 111.67 48.5 107.51 48.54 C103.34 48.57 99.18 48.6 95.01 48.59 C92.43 48.59 89.84 48.61 87.26 48.66 C76.48 48.68 76.48 48.68 71.63 44.23 C70.93 43.61 70.23 42.98 69.5 42.34 C68.87 41.7 68.23 41.06 67.57 40.4 C66.86 39.68 66.14 38.97 65.4 38.23 C64.68 37.49 63.95 36.74 63.2 35.98 C62.47 35.25 61.75 34.53 61 33.78 C57.5 30.25 54.11 26.67 50.87 22.9 C47.08 18.5 42.87 14.85 37.63 12.23 C36.1 12.12 34.57 12.07 33.03 12.06 C32.08 12.04 31.12 12.03 30.14 12.02 C29.11 12.01 28.07 12 27.01 11.98 C24.84 11.95 22.66 11.92 20.49 11.88 C17.06 11.84 13.62 11.79 10.18 11.75 C6.87 11.71 3.57 11.66 0.26 11.61 C-0.78 11.6 -1.81 11.59 -2.87 11.58 C-3.35 11.58 -3.35 11.58 -5.77 11.53 C-6.61 11.52 -7.45 11.51 -8.32 11.5 C-10.37 11.23 -10.37 11.23 -12.37 9.23 C-12.18 5.73 -12.18 5.73 -11.37 2.23 C-7.54 -0.32 -4.43 -0.04 0 0 Z " fill="#33AFE3" transform="translate(582.3671875,477.76953125)"/>
<path d="M0 0 C2.29 1.82 2.29 1.82 4.62 4.19 C5.47 5.05 6.33 5.92 7.21 6.81 C8.09 7.72 8.97 8.63 9.88 9.56 C10.75 10.44 11.62 11.33 12.52 12.24 C17 16.79 21.3 21.45 25.46 26.29 C28.32 29.47 31.61 32.15 34.86 34.92 C38.13 38.1 38.97 40.51 39.23 45.03 C39.23 46.71 39.22 48.38 39.21 50.05 C39.21 50.51 39.21 50.51 39.2 52.82 C39.2 54.8 39.19 56.79 39.18 58.77 C39.17 61.92 39.17 65.06 39.18 68.21 C39.2 77.15 39.2 86.09 39.15 95.03 C39.13 100.5 39.13 105.97 39.16 111.44 C39.17 113.52 39.16 115.6 39.14 117.68 C39.11 120.6 39.12 123.52 39.15 126.43 C39.13 127.29 39.11 128.14 39.09 129.02 C39.2 135.06 41.02 137.99 45.26 142.25 C49.11 146.12 51.22 150.07 51.5 155.5 C51.21 161.38 48.73 165.4 44.44 169.38 C39.59 172.61 34.65 172.62 29 172 C24.07 169.85 20.98 167.47 18 163 C16.13 157.39 16.25 152.68 18.62 147.38 C21 144 21 144 24.1 140.85 C27.54 136.85 27.84 133.09 27.74 127.95 C27.75 127.07 27.76 126.19 27.77 125.28 C27.78 122.4 27.76 119.51 27.73 116.62 C27.73 114.61 27.73 112.59 27.73 110.57 C27.73 106.36 27.71 102.14 27.67 97.92 C27.63 92.52 27.63 87.12 27.64 81.72 C27.65 77.56 27.63 73.41 27.61 69.25 C27.61 67.25 27.6 65.26 27.61 63.27 C27.61 60.49 27.58 57.71 27.55 54.92 C27.55 54.11 27.56 53.29 27.56 52.44 C27.42 44.71 23.91 40.62 18.56 35.44 C17.82 34.71 17.08 33.99 16.32 33.25 C15.55 32.5 14.79 31.76 14 31 C13.26 30.26 12.52 29.52 11.76 28.75 C9.47 26.47 7.16 24.22 4.83 21.97 C3.3 20.48 1.78 18.99 0.25 17.5 C-0.53 16.75 -1.31 16.01 -2.11 15.24 C-2.85 14.51 -3.6 13.78 -4.36 13.03 C-5.03 12.38 -5.71 11.72 -6.41 11.05 C-8.3 8.61 -8.82 7.07 -9 4 C-6.42 -1.16 -5.34 -1.65 0 0 Z " fill="#33AEE3" transform="translate(554,539)"/>
<path d="M0 0 C4.49 3.02 8.13 6.71 9.88 11.94 C10.4 18.23 9.63 21.83 5.88 26.94 C0.62 31.67 -3.36 32.65 -10.12 32.94 C-14.55 33.23 -16.48 33.41 -19.94 36.25 C-23.68 40.85 -24.37 44.04 -24.38 49.81 C-24.38 50.51 -24.38 50.51 -24.4 54.06 C-24.4 54.81 -24.4 55.56 -24.4 56.33 C-24.4 58.67 -24.41 61.02 -24.43 63.36 C-24.47 70.03 -24.5 76.7 -24.51 83.37 C-24.51 87.45 -24.54 91.54 -24.57 95.62 C-24.58 97.17 -24.58 98.72 -24.58 100.28 C-24.57 102.45 -24.59 104.63 -24.61 106.8 C-24.61 108.04 -24.62 109.27 -24.62 110.55 C-25.45 116.08 -28.66 119.73 -32.54 123.58 C-33.19 124.23 -33.84 124.88 -34.51 125.55 C-35.2 126.22 -35.88 126.9 -36.59 127.6 C-36.95 127.96 -36.95 127.96 -38.77 129.77 C-41.05 132.04 -43.34 134.3 -45.62 136.56 C-47.16 138.09 -48.7 139.62 -50.24 141.15 C-53.66 144.55 -57.08 147.95 -60.52 151.34 C-61.85 152.67 -63.15 154.03 -64.43 155.41 C-66.12 156.94 -66.12 156.94 -68.75 156.81 C-71.12 155.94 -71.12 155.94 -73.12 153.94 C-73.24 149.19 -72.15 146.57 -69.01 143.18 C-67.65 141.83 -66.27 140.5 -64.88 139.18 C-64.15 138.46 -63.43 137.75 -62.68 137.01 C-60.36 134.75 -58.03 132.5 -55.69 130.25 C-53.36 127.99 -51.03 125.72 -48.71 123.45 C-47.26 122.04 -45.81 120.64 -44.36 119.24 C-44.03 118.92 -44.03 118.92 -42.37 117.31 C-41.79 116.75 -41.21 116.2 -40.61 115.62 C-37.49 112.08 -36.87 109.01 -36.81 104.49 C-36.79 103.4 -36.77 102.3 -36.75 101.18 C-36.74 100.59 -36.74 100.59 -36.71 97.61 C-36.69 96.38 -36.67 95.16 -36.65 93.9 C-36.59 89.97 -36.55 86.05 -36.5 82.12 C-36.46 79.52 -36.42 76.92 -36.38 74.32 C-36.35 71.79 -36.31 69.26 -36.27 66.73 C-36.26 66.12 -36.26 66.12 -36.22 63.01 C-36.15 58 -36.09 52.99 -36.24 47.98 C-36.28 46.66 -36.31 45.35 -36.35 43.99 C-36.4 42.93 -36.45 41.87 -36.5 40.78 C-35.68 34.62 -30.74 30.29 -26.61 25.96 C-24.15 22.62 -24.08 19.69 -24.31 15.62 C-24.07 10.83 -22.65 8 -20.12 3.94 C-13.89 -1.02 -7.75 -2.63 0 0 Z " fill="#32AEE3" transform="translate(612.125,167.0625)"/>
  </g>
</svg>
