<svg width="128" height="128" viewBox="0 0 128 128" fill="none" xmlns="http://www.w3.org/2000/svg" role="img" aria-label="Thalamus logo">
  <defs>
    <linearGradient id="tile" x1="0" y1="0" x2="128" y2="128" gradientUnits="userSpaceOnUse">
      <stop stop-color="#16294C"/><stop offset="1" stop-color="#0B1428"/>
    </linearGradient>
    <path id="hemiL" d="M198 54 C180 38 150 32 124 42 C96 32 68 50 72 80 C44 86 36 118 58 134 C38 152 42 186 66 198 C50 222 64 254 90 258 C94 286 132 302 156 286 C176 300 198 292 200 266 C201 196 200 122 198 54 Z"/>
  </defs>
  <rect x="2" y="2" width="124" height="124" rx="28" fill="url(#tile)" stroke="#26416E" stroke-width="1.5"/>

  <g transform="translate(2,8) scale(0.3)">
    <use href="#hemiL" stroke="#9FB6DA" stroke-width="8" fill="none" stroke-linejoin="round"/>
    <use href="#hemiL" stroke="#9FB6DA" stroke-width="8" fill="none" stroke-linejoin="round" transform="translate(420,0) scale(-1,1)"/>

    <!-- left neurons (light) -->
    <g stroke="#E3ECF8" fill="none" stroke-width="4.6" stroke-linecap="round" stroke-linejoin="round">
      <path d="M184 126 C162 116 152 100 156 82"/><path d="M156 96 C144 88 130 90 120 80"/>
      <path d="M156 82 C152 68 144 60 134 57"/><path d="M184 126 C164 128 148 122 134 130"/>
      <path d="M148 122 C138 114 124 114 114 120"/><path d="M134 130 C124 136 112 134 102 142"/>
      <path d="M120 80 C112 72 101 72 93 78"/><path d="M184 110 C168 102 152 98 142 88"/>
      <path d="M156 82 C158 68 154 58 162 50"/><path d="M142 88 C138 74 130 66 122 62"/>
      <path d="M184 156 C160 152 142 160 126 152"/><path d="M142 160 C132 168 118 168 108 178"/>
      <path d="M126 152 C116 146 104 148 96 140"/><path d="M96 140 C88 148 88 160 80 166"/>
      <path d="M184 180 C162 182 146 194 130 190"/><path d="M146 194 C136 202 124 204 114 214"/>
      <path d="M130 190 C122 198 118 210 108 216"/><path d="M180 202 C162 212 152 230 154 248"/>
      <path d="M154 230 C144 238 140 252 130 258"/><path d="M154 248 C152 264 144 276 148 288"/>
    </g>
    <g fill="#E3ECF8">
      <circle cx="156" cy="96" r="5.5"/><circle cx="148" cy="122" r="5.5"/><circle cx="142" cy="160" r="5.5"/>
      <circle cx="146" cy="194" r="5.5"/><circle cx="154" cy="230" r="5.5"/>
      <circle cx="134" cy="57" r="3.6"/><circle cx="93" cy="78" r="3.6"/><circle cx="102" cy="142" r="3.6"/>
      <circle cx="142" cy="88" r="3.6"/><circle cx="80" cy="166" r="3.6"/><circle cx="108" cy="178" r="3.6"/>
      <circle cx="114" cy="214" r="3.6"/><circle cx="130" cy="258" r="3.6"/><circle cx="148" cy="288" r="3.6"/>
      <circle cx="162" cy="50" r="3.6"/><circle cx="122" cy="62" r="3.6"/>
    </g>

    <!-- right circuit (cyan) -->
    <g stroke="#5CC9F2" fill="none" stroke-width="4.6" stroke-linecap="round" stroke-linejoin="round">
      <path d="M236 96 H256 V60"/><path d="M236 96 H272 V82"/><path d="M236 118 H290 L308 102"/>
      <path d="M236 140 H262 V112"/><path d="M236 140 H316"/><path d="M236 162 H286 V210"/>
      <path d="M236 206 H300 V236"/><path d="M286 162 H330"/><path d="M316 140 L338 126"/>
    </g>
    <g fill="#5CC9F2">
      <circle cx="256" cy="60" r="6.5"/><circle cx="272" cy="82" r="6.5"/><circle cx="308" cy="102" r="6.5"/>
      <circle cx="262" cy="112" r="6.5"/><circle cx="316" cy="140" r="6.5"/><circle cx="338" cy="126" r="6.5"/>
      <circle cx="286" cy="210" r="6.5"/><circle cx="300" cy="236" r="6.5"/><circle cx="330" cy="162" r="6.5"/>
    </g>

    <!-- central almond -->
    <path d="M210 102 C182 140 184 228 210 266 Z" fill="#E3ECF8"/>
    <path d="M210 102 C238 140 236 228 210 266 Z" fill="#29ABE2"/>
  </g>
</svg>
