<svg width="128" height="128" viewBox="0 0 128 128" fill="none" xmlns="http://www.w3.org/2000/svg" role="img" aria-label="Thalamus logo">
  <defs>
    <linearGradient id="tile" x1="0" y1="0" x2="128" y2="128" gradientUnits="userSpaceOnUse">
      <stop stop-color="#16294C"/><stop offset="1" stop-color="#0B1428"/>
    </linearGradient>
    <path id="hemiL" d="M184 28 C176 22 164 24 156 34 C138 26 112 38 108 64 C78 64 56 92 74 118 C44 140 48 196 78 214 C64 246 82 280 114 282 C122 312 152 324 172 306 C188 316 198 308 198 282 C199 202 198 100 184 28 Z"/>
  </defs>
  <rect x="2" y="2" width="124" height="124" rx="28" fill="url(#tile)" stroke="#26416E" stroke-width="1.5"/>

  <g transform="translate(0,12) scale(0.3)">
    <use href="#hemiL" stroke="#9FB6DA" stroke-width="8" fill="none" stroke-linejoin="round"/>
    <use href="#hemiL" stroke="#9FB6DA" stroke-width="8" fill="none" stroke-linejoin="round" transform="translate(420,0) scale(-1,1)"/>

    <g stroke="#E3ECF8" fill="none" stroke-width="4.8" stroke-linecap="round" stroke-linejoin="round">
      <path d="M186 132 C164 122 154 106 158 86"/><path d="M158 100 C146 92 132 94 122 84"/>
      <path d="M158 86 C154 72 146 64 136 61"/><path d="M186 132 C166 134 150 128 136 136"/>
      <path d="M150 128 C140 120 126 120 116 126"/><path d="M136 136 C126 142 114 140 104 148"/>
      <path d="M122 84 C114 76 103 76 95 82"/><path d="M186 116 C170 108 154 104 144 94"/>
      <path d="M158 86 C160 72 156 62 164 54"/><path d="M144 94 C140 80 132 72 124 68"/>
      <path d="M186 164 C162 160 144 168 128 160"/><path d="M144 168 C134 176 120 176 110 186"/>
      <path d="M128 160 C118 154 106 156 98 148"/><path d="M98 148 C90 156 90 168 82 174"/>
      <path d="M186 190 C164 192 148 204 132 200"/><path d="M148 204 C138 212 126 214 116 224"/>
      <path d="M132 200 C124 208 120 220 110 226"/><path d="M182 214 C164 224 154 244 156 264"/>
      <path d="M156 244 C146 252 142 268 132 274"/><path d="M156 264 C154 282 146 294 150 306"/>
    </g>
    <g fill="#E3ECF8">
      <circle cx="158" cy="100" r="5.5"/><circle cx="150" cy="128" r="5.5"/><circle cx="144" cy="168" r="5.5"/>
      <circle cx="148" cy="204" r="5.5"/><circle cx="156" cy="244" r="5.5"/>
      <circle cx="136" cy="61" r="3.6"/><circle cx="95" cy="82" r="3.6"/><circle cx="104" cy="148" r="3.6"/>
      <circle cx="144" cy="94" r="3.6"/><circle cx="82" cy="174" r="3.6"/><circle cx="110" cy="186" r="3.6"/>
      <circle cx="116" cy="224" r="3.6"/><circle cx="132" cy="274" r="3.6"/><circle cx="150" cy="306" r="3.6"/>
      <circle cx="164" cy="54" r="3.6"/><circle cx="124" cy="68" r="3.6"/>
    </g>

    <g stroke="#5CC9F2" fill="none" stroke-width="4.8" stroke-linecap="round" stroke-linejoin="round">
      <path d="M234 102 H254 V66"/><path d="M234 102 H270 V88"/><path d="M234 124 H288 L306 108"/>
      <path d="M234 146 H260 V118"/><path d="M234 146 H314"/><path d="M234 168 H284 V216"/>
      <path d="M234 212 H298 V242"/><path d="M284 168 H328"/><path d="M314 146 L336 132"/>
    </g>
    <g fill="#5CC9F2">
      <circle cx="254" cy="66" r="6.5"/><circle cx="270" cy="88" r="6.5"/><circle cx="306" cy="108" r="6.5"/>
      <circle cx="260" cy="118" r="6.5"/><circle cx="314" cy="146" r="6.5"/><circle cx="336" cy="132" r="6.5"/>
      <circle cx="284" cy="216" r="6.5"/><circle cx="298" cy="242" r="6.5"/><circle cx="328" cy="168" r="6.5"/>
    </g>

    <path d="M210 92 C186 130 186 212 210 248 Z" fill="#E3ECF8"/>
    <path d="M210 92 C234 130 234 212 210 248 Z" fill="#29ABE2"/>
  </g>
</svg>
